%
M48
M72
T01C0.0236
T02C0.0354
T03C0.0400
T04C0.0730
T05C0.1260
%
T01
X8727Y5248
X10127Y5548
X12027Y5148
X13427Y5348
X14557Y5068
X15107Y4848
X14567Y4478
X16367Y4358
X16007Y3248
X14207Y1758
X13537Y1738
X15107Y1348
X16627Y1718
X19427Y3248
X23427Y1848
X18527Y6348
X16827Y7348
X15817Y6838
X14697Y6858
X13927Y6348
X13827Y7848
X12027Y8748
X12487Y9538
X13227Y9538
X15267Y9018
X16127Y9548
X18367Y9238
X18387Y8378
X10127Y8548
X8727Y8748
X10227Y7048
X7027Y6348
X2827Y6648
T02
X1227Y6358
X1227Y7539
T03
X1727Y4648
X1727Y3648
X9027Y2048
X10027Y2048
X11027Y2048
X12027Y2048
X25127Y4848
X25127Y5848
X25127Y6848
X25127Y7848
X25127Y8848
X25127Y9848
T04
X23327Y10548
X20427Y10548
X20427Y4248
X23327Y4248
X6427Y4248
X3527Y4248
X3527Y10548
X6427Y10548
T05
X1727Y2148
X1727Y12648
X25127Y12648
X25127Y2148
M30
