G75*
%MOIN*%
%OFA0B0*%
%FSLAX25Y25*%
%IPPOS*%
%LPD*%
%AMOC8*
5,1,8,0,0,1.08239X$1,22.5*
%
%ADD10R,0.04724X0.01181*%
%ADD11R,0.01181X0.04724*%
%ADD12C,0.06000*%
%ADD13R,0.01181X0.03150*%
%ADD14R,0.03150X0.01181*%
%ADD15R,0.05118X0.07480*%
%ADD16C,0.01181*%
%ADD17R,0.04331X0.03937*%
%ADD18C,0.10950*%
%ADD19R,0.05000X0.02500*%
%ADD20R,0.03268X0.02480*%
%ADD21R,0.02165X0.04724*%
%ADD22R,0.05906X0.02756*%
%ADD23R,0.02362X0.03937*%
%ADD24R,0.03150X0.03937*%
%ADD25R,0.07087X0.06299*%
%ADD26R,0.03000X0.06000*%
%ADD27C,0.31496*%
%ADD28R,0.12500X0.12500*%
%ADD29R,0.04724X0.03150*%
%ADD30R,0.07400X0.07400*%
%ADD31C,0.07400*%
%ADD32R,0.03150X0.04724*%
%ADD33C,0.00600*%
%ADD34C,0.03762*%
%ADD35OC8,0.16598*%
%ADD36C,0.01600*%
D10*
X0128289Y0045953D03*
X0128289Y0047922D03*
X0128289Y0049890D03*
X0128289Y0051859D03*
X0128289Y0053827D03*
X0128289Y0055796D03*
X0128289Y0057764D03*
X0128289Y0059733D03*
X0128289Y0061701D03*
X0128289Y0063670D03*
X0128289Y0065638D03*
X0128289Y0067607D03*
X0128289Y0069575D03*
X0128289Y0071544D03*
X0128289Y0073512D03*
X0128289Y0075481D03*
X0173565Y0075481D03*
X0173565Y0073512D03*
X0173565Y0071544D03*
X0173565Y0069575D03*
X0173565Y0067607D03*
X0173565Y0065638D03*
X0173565Y0063670D03*
X0173565Y0061701D03*
X0173565Y0059733D03*
X0173565Y0057764D03*
X0173565Y0055796D03*
X0173565Y0053827D03*
X0173565Y0051859D03*
X0173565Y0049890D03*
X0173565Y0047922D03*
X0173565Y0045953D03*
D11*
X0165691Y0038079D03*
X0163722Y0038079D03*
X0161754Y0038079D03*
X0159785Y0038079D03*
X0157817Y0038079D03*
X0155848Y0038079D03*
X0153880Y0038079D03*
X0151911Y0038079D03*
X0149943Y0038079D03*
X0147974Y0038079D03*
X0146006Y0038079D03*
X0144037Y0038079D03*
X0142069Y0038079D03*
X0140100Y0038079D03*
X0138132Y0038079D03*
X0136163Y0038079D03*
X0136163Y0083355D03*
X0138132Y0083355D03*
X0140100Y0083355D03*
X0142069Y0083355D03*
X0144037Y0083355D03*
X0146006Y0083355D03*
X0147974Y0083355D03*
X0149943Y0083355D03*
X0151911Y0083355D03*
X0153880Y0083355D03*
X0155848Y0083355D03*
X0157817Y0083355D03*
X0159785Y0083355D03*
X0161754Y0083355D03*
X0163722Y0083355D03*
X0165691Y0083355D03*
D12*
X0248274Y0078481D02*
X0254274Y0078481D01*
X0254274Y0088481D02*
X0248274Y0088481D01*
X0248274Y0098481D02*
X0254274Y0098481D01*
X0254274Y0068481D02*
X0248274Y0068481D01*
X0248274Y0058481D02*
X0254274Y0058481D01*
X0254274Y0048481D02*
X0248274Y0048481D01*
X0020274Y0046481D02*
X0014274Y0046481D01*
X0014274Y0036481D02*
X0020274Y0036481D01*
D13*
X0147237Y0028496D03*
X0149205Y0028496D03*
X0151174Y0028496D03*
X0153142Y0028496D03*
X0155111Y0028496D03*
X0155111Y0017866D03*
X0153142Y0017866D03*
X0151174Y0017866D03*
X0149205Y0017866D03*
X0147237Y0017866D03*
D14*
X0146154Y0021212D03*
X0146154Y0023181D03*
X0146154Y0025149D03*
X0156193Y0025149D03*
X0156193Y0023181D03*
X0156193Y0021212D03*
D15*
X0113100Y0064181D03*
X0091447Y0064181D03*
X0091447Y0076780D03*
X0113100Y0076780D03*
D16*
X0204443Y0019859D02*
X0204443Y0017103D01*
X0204443Y0019859D02*
X0207199Y0019859D01*
X0207199Y0017103D01*
X0204443Y0017103D01*
X0204443Y0018283D02*
X0207199Y0018283D01*
X0207199Y0019463D02*
X0204443Y0019463D01*
X0211348Y0019859D02*
X0211348Y0017103D01*
X0211348Y0019859D02*
X0214104Y0019859D01*
X0214104Y0017103D01*
X0211348Y0017103D01*
X0211348Y0018283D02*
X0214104Y0018283D01*
X0214104Y0019463D02*
X0211348Y0019463D01*
D17*
X0220927Y0018481D03*
X0227620Y0018481D03*
X0113620Y0055481D03*
X0106927Y0055481D03*
X0106927Y0085481D03*
X0113620Y0085481D03*
D18*
X0064274Y0105481D03*
X0035274Y0105481D03*
X0035274Y0042481D03*
X0064274Y0042481D03*
X0204274Y0042481D03*
X0233274Y0042481D03*
X0233274Y0105481D03*
X0204274Y0105481D03*
D19*
X0031274Y0057252D03*
X0031274Y0053709D03*
D20*
X0012274Y0090953D03*
X0012274Y0100008D03*
X0120274Y0038008D03*
X0120274Y0028953D03*
D21*
X0054014Y0068362D03*
X0046533Y0068362D03*
X0046533Y0078599D03*
X0050274Y0078599D03*
X0054014Y0078599D03*
D22*
X0019163Y0078339D03*
X0019163Y0066528D03*
X0019163Y0060622D03*
D23*
X0008337Y0055111D03*
X0008337Y0083851D03*
D24*
X0016604Y0083851D03*
X0016604Y0055111D03*
D25*
X0036274Y0067969D03*
X0036274Y0078992D03*
X0064274Y0079992D03*
X0064274Y0068969D03*
D26*
X0178774Y0039481D03*
X0193774Y0039481D03*
X0193774Y0017481D03*
X0178774Y0017481D03*
D27*
X0161374Y0118381D03*
D28*
X0192374Y0118381D03*
X0130374Y0118381D03*
D29*
X0100274Y0035024D03*
X0090274Y0035024D03*
X0090274Y0027937D03*
X0100274Y0027937D03*
X0135474Y0029024D03*
X0135474Y0021937D03*
X0166474Y0022237D03*
X0166474Y0029324D03*
D30*
X0090274Y0020481D03*
D31*
X0100274Y0020481D03*
X0110274Y0020481D03*
X0120274Y0020481D03*
D32*
X0235730Y0051481D03*
X0242817Y0051481D03*
X0242817Y0058481D03*
X0235730Y0058481D03*
X0235730Y0068481D03*
X0242817Y0068481D03*
X0242817Y0088481D03*
X0235730Y0088481D03*
X0146617Y0090181D03*
X0139530Y0090181D03*
D33*
X0136174Y0090181D01*
X0136174Y0083365D01*
X0136163Y0083355D01*
X0134148Y0083355D01*
X0132574Y0081781D01*
X0132574Y0078781D01*
X0142774Y0068581D01*
X0143074Y0068281D01*
X0143074Y0059281D01*
X0140074Y0056281D01*
X0140074Y0050381D01*
X0139874Y0050381D01*
X0140100Y0050154D01*
X0140100Y0038079D01*
X0140100Y0033907D01*
X0138974Y0032781D01*
X0136974Y0032781D01*
X0135674Y0031481D01*
X0135674Y0029224D01*
X0135474Y0029024D01*
X0134774Y0033181D02*
X0136174Y0034581D01*
X0136174Y0038069D01*
X0136163Y0038079D01*
X0134774Y0033181D02*
X0112174Y0033181D01*
X0110330Y0035024D01*
X0100274Y0035024D01*
X0108774Y0039781D02*
X0091774Y0039781D01*
X0090274Y0038281D01*
X0090274Y0035024D01*
X0090274Y0027937D02*
X0090274Y0020481D01*
X0100274Y0020481D02*
X0100274Y0027937D01*
X0108774Y0039781D02*
X0113074Y0035481D01*
X0125574Y0035481D01*
X0128289Y0038196D01*
X0128289Y0045953D01*
X0123274Y0049481D02*
X0122207Y0049481D01*
X0122631Y0049905D01*
X0123055Y0050927D01*
X0123055Y0052034D01*
X0122631Y0053056D01*
X0121849Y0053838D01*
X0120827Y0054262D01*
X0119720Y0054262D01*
X0118698Y0053838D01*
X0117916Y0053056D01*
X0117493Y0052034D01*
X0117493Y0050927D01*
X0117916Y0049905D01*
X0118341Y0049481D01*
X0084274Y0049481D01*
X0084274Y0090481D01*
X0123274Y0090481D01*
X0123274Y0073178D01*
X0118471Y0077980D01*
X0116559Y0077980D01*
X0116559Y0080893D01*
X0116032Y0081420D01*
X0114300Y0081420D01*
X0114300Y0082612D01*
X0116158Y0082612D01*
X0116685Y0083139D01*
X0116685Y0087822D01*
X0116158Y0088349D01*
X0111082Y0088349D01*
X0110555Y0087822D01*
X0110555Y0083139D01*
X0111082Y0082612D01*
X0111900Y0082612D01*
X0111900Y0081420D01*
X0110169Y0081420D01*
X0109641Y0080893D01*
X0109641Y0072667D01*
X0110169Y0072140D01*
X0116032Y0072140D01*
X0116559Y0072667D01*
X0116559Y0075580D01*
X0117477Y0075580D01*
X0122074Y0070984D01*
X0122577Y0070481D01*
X0122074Y0069978D01*
X0117477Y0065381D01*
X0116559Y0065381D01*
X0116559Y0068294D01*
X0116032Y0068822D01*
X0110169Y0068822D01*
X0109641Y0068294D01*
X0109641Y0060069D01*
X0110169Y0059541D01*
X0111900Y0059541D01*
X0111900Y0058349D01*
X0111082Y0058349D01*
X0110555Y0057822D01*
X0110555Y0053139D01*
X0111082Y0052612D01*
X0116158Y0052612D01*
X0116685Y0053139D01*
X0116685Y0057822D01*
X0116158Y0058349D01*
X0114300Y0058349D01*
X0114300Y0059541D01*
X0116032Y0059541D01*
X0116559Y0060069D01*
X0116559Y0062981D01*
X0118471Y0062981D01*
X0123274Y0067784D01*
X0123274Y0049481D01*
X0123274Y0049692D02*
X0122418Y0049692D01*
X0122791Y0050290D02*
X0123274Y0050290D01*
X0123274Y0050889D02*
X0123039Y0050889D01*
X0123055Y0051487D02*
X0123274Y0051487D01*
X0123274Y0052086D02*
X0123033Y0052086D01*
X0123274Y0052684D02*
X0122785Y0052684D01*
X0122405Y0053283D02*
X0123274Y0053283D01*
X0123274Y0053881D02*
X0121745Y0053881D01*
X0123274Y0054480D02*
X0116685Y0054480D01*
X0116685Y0055078D02*
X0123274Y0055078D01*
X0123274Y0055677D02*
X0116685Y0055677D01*
X0116685Y0056275D02*
X0123274Y0056275D01*
X0123274Y0056874D02*
X0116685Y0056874D01*
X0116685Y0057472D02*
X0123274Y0057472D01*
X0123274Y0058071D02*
X0116437Y0058071D01*
X0116357Y0059866D02*
X0123274Y0059866D01*
X0123274Y0059268D02*
X0114300Y0059268D01*
X0114300Y0058669D02*
X0123274Y0058669D01*
X0123274Y0060465D02*
X0116559Y0060465D01*
X0116559Y0061063D02*
X0123274Y0061063D01*
X0123274Y0061662D02*
X0116559Y0061662D01*
X0116559Y0062260D02*
X0123274Y0062260D01*
X0123274Y0062859D02*
X0116559Y0062859D01*
X0117974Y0064181D02*
X0113100Y0064181D01*
X0113100Y0056000D01*
X0113620Y0055481D01*
X0110555Y0055677D02*
X0107227Y0055677D01*
X0107227Y0055781D02*
X0110393Y0055781D01*
X0110393Y0057620D01*
X0110304Y0057951D01*
X0110133Y0058247D01*
X0109891Y0058489D01*
X0109594Y0058661D01*
X0109264Y0058749D01*
X0107227Y0058749D01*
X0107227Y0055781D01*
X0106627Y0055781D01*
X0106627Y0058749D01*
X0104591Y0058749D01*
X0104260Y0058661D01*
X0103964Y0058489D01*
X0103722Y0058247D01*
X0103550Y0057951D01*
X0103462Y0057620D01*
X0103462Y0055781D01*
X0106627Y0055781D01*
X0106627Y0055181D01*
X0103462Y0055181D01*
X0103462Y0053341D01*
X0103550Y0053010D01*
X0103722Y0052714D01*
X0103964Y0052472D01*
X0104260Y0052301D01*
X0104591Y0052212D01*
X0106627Y0052212D01*
X0106627Y0055181D01*
X0107227Y0055181D01*
X0107227Y0055781D01*
X0106927Y0055481D02*
X0101274Y0055481D01*
X0103462Y0055078D02*
X0088270Y0055078D01*
X0087827Y0055262D02*
X0086720Y0055262D01*
X0085698Y0054838D01*
X0084916Y0054056D01*
X0084493Y0053034D01*
X0084493Y0051927D01*
X0084916Y0050905D01*
X0085698Y0050123D01*
X0086720Y0049700D01*
X0087827Y0049700D01*
X0088849Y0050123D01*
X0089631Y0050905D01*
X0090055Y0051927D01*
X0090055Y0053034D01*
X0089631Y0054056D01*
X0088849Y0054838D01*
X0087827Y0055262D01*
X0086277Y0055078D02*
X0084274Y0055078D01*
X0084274Y0054480D02*
X0085340Y0054480D01*
X0084844Y0053881D02*
X0084274Y0053881D01*
X0084274Y0053283D02*
X0084596Y0053283D01*
X0084493Y0052684D02*
X0084274Y0052684D01*
X0084274Y0052086D02*
X0084493Y0052086D01*
X0084675Y0051487D02*
X0084274Y0051487D01*
X0084274Y0050889D02*
X0084933Y0050889D01*
X0085531Y0050290D02*
X0084274Y0050290D01*
X0084274Y0049692D02*
X0118130Y0049692D01*
X0117756Y0050290D02*
X0089016Y0050290D01*
X0089615Y0050889D02*
X0117509Y0050889D01*
X0117493Y0051487D02*
X0089872Y0051487D01*
X0090055Y0052086D02*
X0117514Y0052086D01*
X0117762Y0052684D02*
X0116230Y0052684D01*
X0116685Y0053283D02*
X0118143Y0053283D01*
X0118802Y0053881D02*
X0116685Y0053881D01*
X0111010Y0052684D02*
X0110103Y0052684D01*
X0110133Y0052714D02*
X0110304Y0053010D01*
X0110393Y0053341D01*
X0110392Y0055181D01*
X0107227Y0055181D01*
X0107227Y0052212D01*
X0109264Y0052212D01*
X0109594Y0052301D01*
X0109891Y0052472D01*
X0110133Y0052714D01*
X0110377Y0053283D02*
X0110555Y0053283D01*
X0110555Y0053881D02*
X0110393Y0053881D01*
X0110393Y0054480D02*
X0110555Y0054480D01*
X0110555Y0055078D02*
X0110393Y0055078D01*
X0110393Y0056275D02*
X0110555Y0056275D01*
X0110555Y0056874D02*
X0110393Y0056874D01*
X0110393Y0057472D02*
X0110555Y0057472D01*
X0110804Y0058071D02*
X0110235Y0058071D01*
X0109562Y0058669D02*
X0111900Y0058669D01*
X0111900Y0059268D02*
X0084274Y0059268D01*
X0084274Y0059866D02*
X0088190Y0059866D01*
X0087988Y0060069D02*
X0088515Y0059541D01*
X0094379Y0059541D01*
X0094906Y0060069D01*
X0094906Y0068294D01*
X0094379Y0068822D01*
X0088515Y0068822D01*
X0087988Y0068294D01*
X0087988Y0060069D01*
X0087988Y0060465D02*
X0084274Y0060465D01*
X0084274Y0061063D02*
X0087988Y0061063D01*
X0087988Y0061662D02*
X0084274Y0061662D01*
X0084274Y0062260D02*
X0087988Y0062260D01*
X0087988Y0062859D02*
X0084274Y0062859D01*
X0084274Y0063457D02*
X0087988Y0063457D01*
X0087988Y0064056D02*
X0084274Y0064056D01*
X0084274Y0064654D02*
X0087988Y0064654D01*
X0087988Y0065253D02*
X0084274Y0065253D01*
X0084274Y0065851D02*
X0087988Y0065851D01*
X0087988Y0066450D02*
X0084274Y0066450D01*
X0084274Y0067049D02*
X0087988Y0067049D01*
X0087988Y0067647D02*
X0084274Y0067647D01*
X0084274Y0068246D02*
X0087988Y0068246D01*
X0084274Y0068844D02*
X0099977Y0068844D01*
X0099916Y0068905D02*
X0100698Y0068123D01*
X0101720Y0067700D01*
X0102827Y0067700D01*
X0103849Y0068123D01*
X0104631Y0068905D01*
X0105055Y0069927D01*
X0105055Y0071034D01*
X0104631Y0072056D01*
X0103849Y0072838D01*
X0102827Y0073262D01*
X0101720Y0073262D01*
X0100698Y0072838D01*
X0099916Y0072056D01*
X0099493Y0071034D01*
X0099493Y0069927D01*
X0099916Y0068905D01*
X0099693Y0069443D02*
X0084274Y0069443D01*
X0084274Y0070041D02*
X0099493Y0070041D01*
X0099493Y0070640D02*
X0084274Y0070640D01*
X0084274Y0071238D02*
X0099577Y0071238D01*
X0099825Y0071837D02*
X0084274Y0071837D01*
X0084274Y0072435D02*
X0088220Y0072435D01*
X0087988Y0072667D02*
X0088515Y0072140D01*
X0094379Y0072140D01*
X0094906Y0072667D01*
X0094906Y0080893D01*
X0094379Y0081420D01*
X0088515Y0081420D01*
X0087988Y0080893D01*
X0087988Y0072667D01*
X0087988Y0073034D02*
X0084274Y0073034D01*
X0084274Y0073632D02*
X0087988Y0073632D01*
X0087988Y0074231D02*
X0084274Y0074231D01*
X0084274Y0074829D02*
X0087988Y0074829D01*
X0087988Y0075428D02*
X0084274Y0075428D01*
X0084274Y0076026D02*
X0087988Y0076026D01*
X0087988Y0076625D02*
X0084274Y0076625D01*
X0084274Y0077223D02*
X0087988Y0077223D01*
X0087988Y0077822D02*
X0084274Y0077822D01*
X0084274Y0078420D02*
X0087988Y0078420D01*
X0087988Y0079019D02*
X0084274Y0079019D01*
X0084274Y0079617D02*
X0087988Y0079617D01*
X0087988Y0080216D02*
X0084274Y0080216D01*
X0084274Y0080814D02*
X0087988Y0080814D01*
X0088508Y0081413D02*
X0084274Y0081413D01*
X0084274Y0082011D02*
X0111900Y0082011D01*
X0111900Y0082610D02*
X0110029Y0082610D01*
X0110133Y0082714D02*
X0110304Y0083010D01*
X0110393Y0083341D01*
X0110392Y0085181D01*
X0107227Y0085181D01*
X0107227Y0085781D01*
X0106627Y0085781D01*
X0106627Y0088749D01*
X0104591Y0088749D01*
X0104260Y0088661D01*
X0103964Y0088489D01*
X0103722Y0088247D01*
X0103550Y0087951D01*
X0103462Y0087620D01*
X0103462Y0085781D01*
X0106627Y0085781D01*
X0106627Y0085181D01*
X0103462Y0085181D01*
X0103462Y0083341D01*
X0103550Y0083010D01*
X0103722Y0082714D01*
X0103964Y0082472D01*
X0104260Y0082301D01*
X0104591Y0082212D01*
X0106627Y0082212D01*
X0106627Y0085181D01*
X0107227Y0085181D01*
X0107227Y0082212D01*
X0109264Y0082212D01*
X0109594Y0082301D01*
X0109891Y0082472D01*
X0110133Y0082714D01*
X0110357Y0083208D02*
X0110555Y0083208D01*
X0110555Y0083807D02*
X0110393Y0083807D01*
X0110393Y0084405D02*
X0110555Y0084405D01*
X0110555Y0085004D02*
X0110393Y0085004D01*
X0110555Y0085602D02*
X0107227Y0085602D01*
X0107227Y0085781D02*
X0110393Y0085781D01*
X0110393Y0087620D01*
X0110304Y0087951D01*
X0110133Y0088247D01*
X0109891Y0088489D01*
X0109594Y0088661D01*
X0109264Y0088749D01*
X0107227Y0088749D01*
X0107227Y0085781D01*
X0107227Y0086201D02*
X0106627Y0086201D01*
X0106627Y0086799D02*
X0107227Y0086799D01*
X0107227Y0087398D02*
X0106627Y0087398D01*
X0106627Y0087996D02*
X0107227Y0087996D01*
X0107227Y0088595D02*
X0106627Y0088595D01*
X0104146Y0088595D02*
X0089822Y0088595D01*
X0089631Y0089056D02*
X0090055Y0088034D01*
X0090055Y0086927D01*
X0089631Y0085905D01*
X0088849Y0085123D01*
X0087827Y0084700D01*
X0086720Y0084700D01*
X0085698Y0085123D01*
X0084916Y0085905D01*
X0084493Y0086927D01*
X0084493Y0088034D01*
X0084916Y0089056D01*
X0085698Y0089838D01*
X0086720Y0090262D01*
X0087827Y0090262D01*
X0088849Y0089838D01*
X0089631Y0089056D01*
X0089494Y0089193D02*
X0118053Y0089193D01*
X0117916Y0089056D02*
X0117493Y0088034D01*
X0117493Y0086927D01*
X0117916Y0085905D01*
X0118698Y0085123D01*
X0119720Y0084700D01*
X0120827Y0084700D01*
X0121849Y0085123D01*
X0122631Y0085905D01*
X0123055Y0086927D01*
X0123055Y0088034D01*
X0122631Y0089056D01*
X0121849Y0089838D01*
X0120827Y0090262D01*
X0119720Y0090262D01*
X0118698Y0089838D01*
X0117916Y0089056D01*
X0117725Y0088595D02*
X0109708Y0088595D01*
X0110278Y0087996D02*
X0110729Y0087996D01*
X0110555Y0087398D02*
X0110393Y0087398D01*
X0110393Y0086799D02*
X0110555Y0086799D01*
X0110555Y0086201D02*
X0110393Y0086201D01*
X0113100Y0084961D02*
X0113620Y0085481D01*
X0113100Y0084961D02*
X0113100Y0076780D01*
X0117974Y0076780D01*
X0123274Y0071481D01*
X0128226Y0071481D01*
X0128289Y0071544D01*
X0128289Y0069575D02*
X0128195Y0069481D01*
X0123274Y0069481D01*
X0117974Y0064181D01*
X0118947Y0063457D02*
X0123274Y0063457D01*
X0123274Y0064056D02*
X0119546Y0064056D01*
X0120144Y0064654D02*
X0123274Y0064654D01*
X0123274Y0065253D02*
X0120743Y0065253D01*
X0121341Y0065851D02*
X0123274Y0065851D01*
X0123274Y0066450D02*
X0121940Y0066450D01*
X0122538Y0067049D02*
X0123274Y0067049D01*
X0123274Y0067647D02*
X0123137Y0067647D01*
X0121538Y0069443D02*
X0104854Y0069443D01*
X0105055Y0070041D02*
X0122137Y0070041D01*
X0122418Y0070640D02*
X0105055Y0070640D01*
X0104970Y0071238D02*
X0121819Y0071238D01*
X0121221Y0071837D02*
X0104722Y0071837D01*
X0104252Y0072435D02*
X0109873Y0072435D01*
X0109641Y0073034D02*
X0103378Y0073034D01*
X0101170Y0073034D02*
X0094906Y0073034D01*
X0094906Y0073632D02*
X0109641Y0073632D01*
X0109641Y0074231D02*
X0094906Y0074231D01*
X0094906Y0074829D02*
X0109641Y0074829D01*
X0109641Y0075428D02*
X0094906Y0075428D01*
X0094906Y0076026D02*
X0109641Y0076026D01*
X0109641Y0076625D02*
X0094906Y0076625D01*
X0094906Y0077223D02*
X0109641Y0077223D01*
X0109641Y0077822D02*
X0094906Y0077822D01*
X0094906Y0078420D02*
X0109641Y0078420D01*
X0109641Y0079019D02*
X0094906Y0079019D01*
X0094906Y0079617D02*
X0109641Y0079617D01*
X0109641Y0080216D02*
X0094906Y0080216D01*
X0094906Y0080814D02*
X0109641Y0080814D01*
X0110161Y0081413D02*
X0094386Y0081413D01*
X0089328Y0085602D02*
X0106627Y0085602D01*
X0106927Y0085481D02*
X0101274Y0085481D01*
X0100274Y0085481D01*
X0101274Y0085481D02*
X0101274Y0084481D01*
X0103462Y0084405D02*
X0084274Y0084405D01*
X0084274Y0083807D02*
X0103462Y0083807D01*
X0103497Y0083208D02*
X0084274Y0083208D01*
X0084274Y0082610D02*
X0103826Y0082610D01*
X0106627Y0082610D02*
X0107227Y0082610D01*
X0107227Y0083208D02*
X0106627Y0083208D01*
X0106627Y0083807D02*
X0107227Y0083807D01*
X0107227Y0084405D02*
X0106627Y0084405D01*
X0106627Y0085004D02*
X0107227Y0085004D01*
X0103462Y0085004D02*
X0088561Y0085004D01*
X0089754Y0086201D02*
X0103462Y0086201D01*
X0103462Y0086799D02*
X0090002Y0086799D01*
X0090055Y0087398D02*
X0103462Y0087398D01*
X0103577Y0087996D02*
X0090055Y0087996D01*
X0088895Y0089792D02*
X0118652Y0089792D01*
X0117493Y0087996D02*
X0116511Y0087996D01*
X0116685Y0087398D02*
X0117493Y0087398D01*
X0117546Y0086799D02*
X0116685Y0086799D01*
X0116685Y0086201D02*
X0117793Y0086201D01*
X0118219Y0085602D02*
X0116685Y0085602D01*
X0116685Y0085004D02*
X0118986Y0085004D01*
X0116685Y0084405D02*
X0123274Y0084405D01*
X0123274Y0083807D02*
X0116685Y0083807D01*
X0116685Y0083208D02*
X0123274Y0083208D01*
X0123274Y0082610D02*
X0114300Y0082610D01*
X0114300Y0082011D02*
X0123274Y0082011D01*
X0123274Y0081413D02*
X0116039Y0081413D01*
X0116559Y0080814D02*
X0123274Y0080814D01*
X0123274Y0080216D02*
X0116559Y0080216D01*
X0116559Y0079617D02*
X0123274Y0079617D01*
X0123274Y0079019D02*
X0116559Y0079019D01*
X0116559Y0078420D02*
X0123274Y0078420D01*
X0123274Y0077822D02*
X0118630Y0077822D01*
X0119228Y0077223D02*
X0123274Y0077223D01*
X0123274Y0076625D02*
X0119827Y0076625D01*
X0120425Y0076026D02*
X0123274Y0076026D01*
X0123274Y0075428D02*
X0121024Y0075428D01*
X0121622Y0074829D02*
X0123274Y0074829D01*
X0123274Y0074231D02*
X0122221Y0074231D01*
X0122819Y0073632D02*
X0123274Y0073632D01*
X0120622Y0072435D02*
X0116328Y0072435D01*
X0116559Y0073034D02*
X0120024Y0073034D01*
X0119425Y0073632D02*
X0116559Y0073632D01*
X0116559Y0074231D02*
X0118827Y0074231D01*
X0118228Y0074829D02*
X0116559Y0074829D01*
X0116559Y0075428D02*
X0117630Y0075428D01*
X0120940Y0068844D02*
X0104570Y0068844D01*
X0103972Y0068246D02*
X0109641Y0068246D01*
X0109641Y0067647D02*
X0094906Y0067647D01*
X0094906Y0067049D02*
X0109641Y0067049D01*
X0109641Y0066450D02*
X0094906Y0066450D01*
X0094906Y0065851D02*
X0109641Y0065851D01*
X0109641Y0065253D02*
X0094906Y0065253D01*
X0094906Y0064654D02*
X0109641Y0064654D01*
X0109641Y0064056D02*
X0094906Y0064056D01*
X0094906Y0063457D02*
X0109641Y0063457D01*
X0109641Y0062859D02*
X0094906Y0062859D01*
X0094906Y0062260D02*
X0109641Y0062260D01*
X0109641Y0061662D02*
X0094906Y0061662D01*
X0094906Y0061063D02*
X0109641Y0061063D01*
X0109641Y0060465D02*
X0094906Y0060465D01*
X0094704Y0059866D02*
X0109843Y0059866D01*
X0107227Y0058669D02*
X0106627Y0058669D01*
X0106627Y0058071D02*
X0107227Y0058071D01*
X0107227Y0057472D02*
X0106627Y0057472D01*
X0106627Y0056874D02*
X0107227Y0056874D01*
X0107227Y0056275D02*
X0106627Y0056275D01*
X0106627Y0055677D02*
X0084274Y0055677D01*
X0084274Y0056275D02*
X0103462Y0056275D01*
X0103462Y0056874D02*
X0084274Y0056874D01*
X0084274Y0057472D02*
X0103462Y0057472D01*
X0103620Y0058071D02*
X0084274Y0058071D01*
X0084274Y0058669D02*
X0104293Y0058669D01*
X0103462Y0054480D02*
X0089208Y0054480D01*
X0089704Y0053881D02*
X0103462Y0053881D01*
X0103477Y0053283D02*
X0089952Y0053283D01*
X0090055Y0052684D02*
X0103751Y0052684D01*
X0106627Y0052684D02*
X0107227Y0052684D01*
X0107227Y0053283D02*
X0106627Y0053283D01*
X0106627Y0053881D02*
X0107227Y0053881D01*
X0107227Y0054480D02*
X0106627Y0054480D01*
X0106627Y0055078D02*
X0107227Y0055078D01*
X0116559Y0065851D02*
X0117947Y0065851D01*
X0118546Y0066450D02*
X0116559Y0066450D01*
X0116559Y0067049D02*
X0119144Y0067049D01*
X0119743Y0067647D02*
X0116559Y0067647D01*
X0116559Y0068246D02*
X0120341Y0068246D01*
X0128289Y0063670D02*
X0139274Y0063481D01*
X0143074Y0059281D02*
X0152574Y0059281D01*
X0167874Y0043981D01*
X0167874Y0039081D01*
X0166872Y0038079D01*
X0165691Y0038079D01*
X0165691Y0030107D01*
X0166474Y0029324D01*
X0166474Y0029381D01*
X0163317Y0029324D01*
X0161774Y0027781D01*
X0161059Y0028496D01*
X0155111Y0028496D01*
X0156162Y0025181D02*
X0153774Y0025181D01*
X0153142Y0024549D01*
X0153142Y0017866D01*
X0155111Y0017866D01*
X0155426Y0018181D01*
X0160074Y0018181D01*
X0161074Y0017181D01*
X0166274Y0017181D01*
X0166374Y0017281D01*
X0166374Y0017481D01*
X0166274Y0017181D02*
X0166274Y0022037D01*
X0166474Y0022237D01*
X0161774Y0023481D02*
X0161774Y0027781D01*
X0166330Y0029181D02*
X0166474Y0029324D01*
X0160074Y0032481D02*
X0150274Y0032481D01*
X0149174Y0031381D01*
X0149174Y0028527D01*
X0149205Y0028496D01*
X0145174Y0030281D02*
X0147974Y0033081D01*
X0147974Y0038079D01*
X0146006Y0038079D02*
X0146006Y0033813D01*
X0145074Y0032881D01*
X0144374Y0032881D01*
X0143474Y0031981D01*
X0143474Y0023581D01*
X0143874Y0023181D01*
X0146154Y0023181D01*
X0146154Y0025149D02*
X0145174Y0026130D01*
X0145174Y0030281D01*
X0156162Y0025181D02*
X0156193Y0025149D01*
X0159474Y0021181D02*
X0161774Y0023481D01*
X0159474Y0021181D02*
X0156225Y0021181D01*
X0156193Y0021212D01*
X0151174Y0017866D02*
X0151074Y0017766D01*
X0151074Y0013481D01*
X0142074Y0017581D02*
X0142074Y0020181D01*
X0143074Y0021181D01*
X0146122Y0021181D01*
X0146154Y0021212D01*
X0135474Y0021937D02*
X0135374Y0021837D01*
X0135374Y0017381D01*
X0135574Y0017381D01*
X0120274Y0020481D02*
X0120274Y0028953D01*
X0120274Y0038008D02*
X0120274Y0040481D01*
X0118274Y0042481D01*
X0089274Y0042481D01*
X0074274Y0057481D01*
X0051274Y0057481D01*
X0044274Y0064481D01*
X0044274Y0073481D01*
X0038762Y0078992D01*
X0036274Y0078992D01*
X0035620Y0078339D01*
X0019163Y0078339D01*
X0012074Y0082081D02*
X0012074Y0090753D01*
X0012274Y0090953D01*
X0012074Y0082081D02*
X0008374Y0078381D01*
X0008374Y0070981D01*
X0009874Y0069481D01*
X0012274Y0069481D01*
X0015274Y0066481D01*
X0019116Y0066481D01*
X0019163Y0066528D01*
X0028274Y0066481D02*
X0029762Y0067969D01*
X0036274Y0067969D01*
X0044274Y0073481D02*
X0053274Y0073481D01*
X0054274Y0074481D01*
X0054274Y0078339D01*
X0054014Y0078599D01*
X0058274Y0078481D02*
X0059274Y0079481D01*
X0058274Y0080481D01*
X0058274Y0083481D01*
X0057274Y0084481D01*
X0047274Y0084481D01*
X0046533Y0083741D01*
X0046533Y0078599D01*
X0058274Y0078481D02*
X0058274Y0070481D01*
X0056155Y0068362D01*
X0054014Y0068362D01*
X0064274Y0068969D02*
X0064785Y0068969D01*
X0070274Y0063481D01*
X0094906Y0068246D02*
X0100576Y0068246D01*
X0100295Y0072435D02*
X0094674Y0072435D01*
X0077974Y0082681D02*
X0077974Y0091581D01*
X0082074Y0095681D01*
X0124574Y0095681D01*
X0124874Y0095381D01*
X0123274Y0090390D02*
X0084274Y0090390D01*
X0084274Y0089792D02*
X0085652Y0089792D01*
X0085053Y0089193D02*
X0084274Y0089193D01*
X0084274Y0088595D02*
X0084725Y0088595D01*
X0084493Y0087996D02*
X0084274Y0087996D01*
X0084274Y0087398D02*
X0084493Y0087398D01*
X0084546Y0086799D02*
X0084274Y0086799D01*
X0084274Y0086201D02*
X0084793Y0086201D01*
X0085219Y0085602D02*
X0084274Y0085602D01*
X0084274Y0085004D02*
X0085986Y0085004D01*
X0077974Y0082681D02*
X0075285Y0079992D01*
X0064274Y0079992D01*
X0063762Y0079481D01*
X0059274Y0079481D01*
X0035274Y0105481D02*
X0029801Y0100008D01*
X0012274Y0100008D01*
X0027274Y0056481D02*
X0030502Y0056481D01*
X0031274Y0057252D01*
X0027274Y0056481D02*
X0022274Y0051481D01*
X0019274Y0051481D01*
X0017274Y0049481D01*
X0017274Y0046481D01*
X0031274Y0050481D02*
X0031274Y0053709D01*
X0031274Y0050481D02*
X0035274Y0046481D01*
X0035274Y0042481D01*
X0029274Y0036481D01*
X0017274Y0036481D01*
X0121561Y0085004D02*
X0123274Y0085004D01*
X0123274Y0085602D02*
X0122328Y0085602D01*
X0122754Y0086201D02*
X0123274Y0086201D01*
X0123274Y0086799D02*
X0123002Y0086799D01*
X0123055Y0087398D02*
X0123274Y0087398D01*
X0123274Y0087996D02*
X0123055Y0087996D01*
X0123274Y0088595D02*
X0122822Y0088595D01*
X0122494Y0089193D02*
X0123274Y0089193D01*
X0123274Y0089792D02*
X0121895Y0089792D01*
X0132274Y0095381D02*
X0132574Y0095381D01*
X0136174Y0091781D01*
X0136174Y0090181D01*
X0138132Y0083355D02*
X0138274Y0083355D01*
X0138274Y0078481D01*
X0128289Y0075481D02*
X0128289Y0100496D01*
X0130274Y0102481D01*
X0130274Y0114481D01*
X0130374Y0118381D01*
X0158374Y0128981D02*
X0161374Y0118381D01*
X0161274Y0115481D01*
X0161274Y0095481D01*
X0173274Y0083481D02*
X0178274Y0088481D01*
X0235730Y0088481D01*
X0242817Y0088481D02*
X0251274Y0088481D01*
X0251274Y0098481D02*
X0189774Y0098481D01*
X0183674Y0092381D01*
X0183874Y0083781D02*
X0183874Y0080081D01*
X0179174Y0075381D01*
X0173665Y0075381D01*
X0173565Y0075481D01*
X0173565Y0078189D01*
X0172774Y0078981D01*
X0164074Y0078981D01*
X0161374Y0076281D01*
X0161374Y0071581D01*
X0158174Y0068381D01*
X0146974Y0068581D02*
X0142774Y0068581D01*
X0153274Y0061481D02*
X0153274Y0078881D01*
X0153874Y0079481D01*
X0153874Y0083348D01*
X0153880Y0083355D01*
X0165691Y0083355D02*
X0165817Y0083481D01*
X0173274Y0083481D01*
X0173565Y0073512D02*
X0168274Y0073512D01*
X0168274Y0073481D01*
X0173565Y0071544D02*
X0173628Y0071481D01*
X0186274Y0071481D01*
X0189274Y0068481D01*
X0235730Y0068481D01*
X0242817Y0068481D02*
X0251274Y0068481D01*
X0251274Y0058481D02*
X0242817Y0058481D01*
X0235730Y0058481D02*
X0201274Y0058481D01*
X0196274Y0063481D01*
X0185274Y0063481D01*
X0190274Y0059481D02*
X0173817Y0059481D01*
X0173565Y0059733D01*
X0173565Y0055796D02*
X0173880Y0055481D01*
X0178274Y0055481D01*
X0178774Y0054981D01*
X0178774Y0039481D01*
X0171274Y0043481D02*
X0153274Y0061481D01*
X0152274Y0052581D02*
X0147374Y0052581D01*
X0147374Y0052481D01*
X0145574Y0050681D01*
X0139874Y0050381D02*
X0132574Y0050381D01*
X0131274Y0051681D01*
X0128467Y0051681D01*
X0128289Y0051859D01*
X0128289Y0053827D02*
X0133927Y0053827D01*
X0134274Y0053481D01*
X0144037Y0043144D02*
X0145674Y0044781D01*
X0144037Y0043144D02*
X0144037Y0038079D01*
X0149943Y0038079D02*
X0149943Y0044350D01*
X0151074Y0045481D01*
X0151074Y0048481D01*
X0153974Y0050881D02*
X0153974Y0045881D01*
X0151911Y0043818D01*
X0151911Y0038079D01*
X0163722Y0038079D02*
X0163722Y0043532D01*
X0163674Y0043581D01*
X0163574Y0043481D01*
X0163674Y0043581D02*
X0163874Y0043581D01*
X0171274Y0043481D02*
X0171274Y0017481D01*
X0176274Y0012481D01*
X0235274Y0012481D01*
X0239274Y0016481D01*
X0239274Y0024481D01*
X0234274Y0029481D01*
X0228274Y0029481D01*
X0224274Y0033481D01*
X0224274Y0045481D01*
X0230274Y0051481D01*
X0235730Y0051481D01*
X0242817Y0051481D02*
X0243817Y0052481D01*
X0247274Y0052481D01*
X0251274Y0048481D01*
X0255274Y0042481D02*
X0260274Y0047481D01*
X0260274Y0100481D01*
X0254274Y0106481D01*
X0234274Y0106481D01*
X0233274Y0105481D01*
X0190274Y0059481D02*
X0197274Y0052481D01*
X0197274Y0039481D01*
X0199274Y0037481D01*
X0199274Y0020481D01*
X0201274Y0018481D01*
X0205821Y0018481D01*
X0212726Y0018481D02*
X0220927Y0018481D01*
X0227620Y0018481D02*
X0234274Y0018481D01*
X0194274Y0032481D02*
X0193774Y0032981D01*
X0193774Y0039481D01*
X0233274Y0042481D02*
X0255274Y0042481D01*
X0153974Y0050881D02*
X0152274Y0052581D01*
D34*
X0151074Y0048481D03*
X0145574Y0050681D03*
X0145674Y0044781D03*
X0134274Y0053481D03*
X0120274Y0051481D03*
X0101274Y0055481D03*
X0087274Y0052481D03*
X0070274Y0063481D03*
X0102274Y0070481D03*
X0101274Y0085481D03*
X0087274Y0087481D03*
X0120274Y0087481D03*
X0124874Y0095381D03*
X0132274Y0095381D03*
X0152674Y0090181D03*
X0161274Y0095481D03*
X0183674Y0092381D03*
X0183874Y0083781D03*
X0168274Y0073481D03*
X0158174Y0068381D03*
X0146974Y0068581D03*
X0139274Y0063481D03*
X0138274Y0078481D03*
X0185274Y0063481D03*
X0163674Y0043581D03*
X0160074Y0032481D03*
X0142074Y0017581D03*
X0135374Y0017381D03*
X0151074Y0013481D03*
X0166274Y0017181D03*
X0194274Y0032481D03*
X0234274Y0018481D03*
X0028274Y0066481D03*
D35*
X0017274Y0021481D03*
X0017274Y0126481D03*
X0251274Y0126481D03*
X0251274Y0021481D03*
D36*
X0152674Y0090181D02*
X0146617Y0090181D01*
X0152274Y0090181D02*
X0152274Y0089881D01*
X0152274Y0090181D02*
X0152674Y0090181D01*
M02*
