G75*
%MOIN*%
%OFA0B0*%
%FSLAX25Y25*%
%IPPOS*%
%LPD*%
%AMOC8*
5,1,8,0,0,1.08239X$1,22.5*
%
%ADD10C,0.06500*%
%ADD11C,0.11450*%
%ADD12C,0.04043*%
%ADD13R,0.07900X0.07900*%
%ADD14C,0.07900*%
%ADD15C,0.04262*%
%ADD16OC8,0.17098*%
D10*
X0014274Y0036481D02*
X0020274Y0036481D01*
X0020274Y0046481D02*
X0014274Y0046481D01*
X0248274Y0048481D02*
X0254274Y0048481D01*
X0254274Y0058481D02*
X0248274Y0058481D01*
X0248274Y0068481D02*
X0254274Y0068481D01*
X0254274Y0078481D02*
X0248274Y0078481D01*
X0248274Y0088481D02*
X0254274Y0088481D01*
X0254274Y0098481D02*
X0248274Y0098481D01*
D11*
X0233274Y0105481D03*
X0204274Y0105481D03*
X0204274Y0042481D03*
X0233274Y0042481D03*
X0064274Y0042481D03*
X0035274Y0042481D03*
X0035274Y0105481D03*
X0064274Y0105481D03*
D12*
X0012274Y0075386D03*
X0012274Y0063575D03*
D13*
X0090274Y0020481D03*
D14*
X0100274Y0020481D03*
X0110274Y0020481D03*
X0120274Y0020481D03*
D15*
X0135374Y0017381D03*
X0142074Y0017581D03*
X0151074Y0013481D03*
X0166274Y0017181D03*
X0160074Y0032481D03*
X0163674Y0043581D03*
X0151074Y0048481D03*
X0145574Y0050681D03*
X0145674Y0044781D03*
X0134274Y0053481D03*
X0120274Y0051481D03*
X0101274Y0055481D03*
X0087274Y0052481D03*
X0070274Y0063481D03*
X0102274Y0070481D03*
X0101274Y0085481D03*
X0087274Y0087481D03*
X0120274Y0087481D03*
X0124874Y0095381D03*
X0132274Y0095381D03*
X0152674Y0090181D03*
X0161274Y0095481D03*
X0183674Y0092381D03*
X0183874Y0083781D03*
X0168274Y0073481D03*
X0158174Y0068381D03*
X0146974Y0068581D03*
X0139274Y0063481D03*
X0138274Y0078481D03*
X0185274Y0063481D03*
X0194274Y0032481D03*
X0234274Y0018481D03*
X0028274Y0066481D03*
D16*
X0017274Y0021481D03*
X0017274Y0126481D03*
X0251274Y0126481D03*
X0251274Y0021481D03*
M02*
