G75*
%MOIN*%
%OFA0B0*%
%FSLAX25Y25*%
%IPPOS*%
%LPD*%
%AMOC8*
5,1,8,0,0,1.08239X$1,22.5*
%
%ADD10R,0.04724X0.01181*%
%ADD11R,0.01181X0.04724*%
%ADD12R,0.01181X0.03150*%
%ADD13R,0.03150X0.01181*%
%ADD14R,0.05118X0.07480*%
%ADD15C,0.01181*%
%ADD16R,0.04331X0.03937*%
%ADD17R,0.03268X0.02480*%
%ADD18R,0.02165X0.04724*%
%ADD19R,0.05906X0.02756*%
%ADD20R,0.02362X0.03937*%
%ADD21R,0.03150X0.03937*%
%ADD22R,0.07087X0.06299*%
%ADD23R,0.03000X0.06000*%
%ADD24R,0.12500X0.12500*%
%ADD25C,0.07874*%
%ADD26R,0.04724X0.03150*%
%ADD27R,0.03150X0.04724*%
D10*
X0128289Y0045953D03*
X0128289Y0047922D03*
X0128289Y0049890D03*
X0128289Y0051859D03*
X0128289Y0053827D03*
X0128289Y0055796D03*
X0128289Y0057764D03*
X0128289Y0059733D03*
X0128289Y0061701D03*
X0128289Y0063670D03*
X0128289Y0065638D03*
X0128289Y0067607D03*
X0128289Y0069575D03*
X0128289Y0071544D03*
X0128289Y0073512D03*
X0128289Y0075481D03*
X0173565Y0075481D03*
X0173565Y0073512D03*
X0173565Y0071544D03*
X0173565Y0069575D03*
X0173565Y0067607D03*
X0173565Y0065638D03*
X0173565Y0063670D03*
X0173565Y0061701D03*
X0173565Y0059733D03*
X0173565Y0057764D03*
X0173565Y0055796D03*
X0173565Y0053827D03*
X0173565Y0051859D03*
X0173565Y0049890D03*
X0173565Y0047922D03*
X0173565Y0045953D03*
D11*
X0165691Y0038079D03*
X0163722Y0038079D03*
X0161754Y0038079D03*
X0159785Y0038079D03*
X0157817Y0038079D03*
X0155848Y0038079D03*
X0153880Y0038079D03*
X0151911Y0038079D03*
X0149943Y0038079D03*
X0147974Y0038079D03*
X0146006Y0038079D03*
X0144037Y0038079D03*
X0142069Y0038079D03*
X0140100Y0038079D03*
X0138132Y0038079D03*
X0136163Y0038079D03*
X0136163Y0083355D03*
X0138132Y0083355D03*
X0140100Y0083355D03*
X0142069Y0083355D03*
X0144037Y0083355D03*
X0146006Y0083355D03*
X0147974Y0083355D03*
X0149943Y0083355D03*
X0151911Y0083355D03*
X0153880Y0083355D03*
X0155848Y0083355D03*
X0157817Y0083355D03*
X0159785Y0083355D03*
X0161754Y0083355D03*
X0163722Y0083355D03*
X0165691Y0083355D03*
D12*
X0155111Y0028496D03*
X0153142Y0028496D03*
X0151174Y0028496D03*
X0149205Y0028496D03*
X0147237Y0028496D03*
X0147237Y0017866D03*
X0149205Y0017866D03*
X0151174Y0017866D03*
X0153142Y0017866D03*
X0155111Y0017866D03*
D13*
X0156193Y0021212D03*
X0156193Y0023181D03*
X0156193Y0025149D03*
X0146154Y0025149D03*
X0146154Y0023181D03*
X0146154Y0021212D03*
D14*
X0113100Y0064181D03*
X0091447Y0064181D03*
X0091447Y0076780D03*
X0113100Y0076780D03*
D15*
X0204443Y0019859D02*
X0204443Y0017103D01*
X0204443Y0019859D02*
X0207199Y0019859D01*
X0207199Y0017103D01*
X0204443Y0017103D01*
X0204443Y0018283D02*
X0207199Y0018283D01*
X0207199Y0019463D02*
X0204443Y0019463D01*
X0211348Y0019859D02*
X0211348Y0017103D01*
X0211348Y0019859D02*
X0214104Y0019859D01*
X0214104Y0017103D01*
X0211348Y0017103D01*
X0211348Y0018283D02*
X0214104Y0018283D01*
X0214104Y0019463D02*
X0211348Y0019463D01*
D16*
X0220927Y0018481D03*
X0227620Y0018481D03*
X0113620Y0055481D03*
X0106927Y0055481D03*
X0106927Y0085481D03*
X0113620Y0085481D03*
D17*
X0120274Y0038008D03*
X0120274Y0028953D03*
X0012274Y0090953D03*
X0012274Y0100008D03*
D18*
X0046533Y0078599D03*
X0050274Y0078599D03*
X0054014Y0078599D03*
X0054014Y0068362D03*
X0046533Y0068362D03*
D19*
X0019163Y0066528D03*
X0019163Y0060622D03*
X0019163Y0078339D03*
D20*
X0008337Y0083851D03*
X0008337Y0055111D03*
D21*
X0016604Y0055111D03*
X0016604Y0083851D03*
D22*
X0036274Y0078992D03*
X0036274Y0067969D03*
X0064274Y0068969D03*
X0064274Y0079992D03*
D23*
X0178774Y0039481D03*
X0193774Y0039481D03*
X0193774Y0017481D03*
X0178774Y0017481D03*
D24*
X0192374Y0118381D03*
X0130374Y0118381D03*
D25*
X0157437Y0118381D02*
X0157439Y0118506D01*
X0157445Y0118631D01*
X0157455Y0118755D01*
X0157469Y0118879D01*
X0157486Y0119003D01*
X0157508Y0119126D01*
X0157534Y0119248D01*
X0157563Y0119370D01*
X0157596Y0119490D01*
X0157634Y0119609D01*
X0157674Y0119728D01*
X0157719Y0119844D01*
X0157767Y0119959D01*
X0157819Y0120073D01*
X0157875Y0120185D01*
X0157934Y0120295D01*
X0157996Y0120403D01*
X0158062Y0120510D01*
X0158131Y0120614D01*
X0158204Y0120715D01*
X0158279Y0120815D01*
X0158358Y0120912D01*
X0158440Y0121006D01*
X0158525Y0121098D01*
X0158612Y0121187D01*
X0158703Y0121273D01*
X0158796Y0121356D01*
X0158892Y0121437D01*
X0158990Y0121514D01*
X0159090Y0121588D01*
X0159193Y0121659D01*
X0159298Y0121726D01*
X0159406Y0121791D01*
X0159515Y0121851D01*
X0159626Y0121909D01*
X0159739Y0121962D01*
X0159853Y0122012D01*
X0159969Y0122059D01*
X0160086Y0122101D01*
X0160205Y0122140D01*
X0160325Y0122176D01*
X0160446Y0122207D01*
X0160568Y0122235D01*
X0160690Y0122258D01*
X0160814Y0122278D01*
X0160938Y0122294D01*
X0161062Y0122306D01*
X0161187Y0122314D01*
X0161312Y0122318D01*
X0161436Y0122318D01*
X0161561Y0122314D01*
X0161686Y0122306D01*
X0161810Y0122294D01*
X0161934Y0122278D01*
X0162058Y0122258D01*
X0162180Y0122235D01*
X0162302Y0122207D01*
X0162423Y0122176D01*
X0162543Y0122140D01*
X0162662Y0122101D01*
X0162779Y0122059D01*
X0162895Y0122012D01*
X0163009Y0121962D01*
X0163122Y0121909D01*
X0163233Y0121851D01*
X0163343Y0121791D01*
X0163450Y0121726D01*
X0163555Y0121659D01*
X0163658Y0121588D01*
X0163758Y0121514D01*
X0163856Y0121437D01*
X0163952Y0121356D01*
X0164045Y0121273D01*
X0164136Y0121187D01*
X0164223Y0121098D01*
X0164308Y0121006D01*
X0164390Y0120912D01*
X0164469Y0120815D01*
X0164544Y0120715D01*
X0164617Y0120614D01*
X0164686Y0120510D01*
X0164752Y0120403D01*
X0164814Y0120295D01*
X0164873Y0120185D01*
X0164929Y0120073D01*
X0164981Y0119959D01*
X0165029Y0119844D01*
X0165074Y0119728D01*
X0165114Y0119609D01*
X0165152Y0119490D01*
X0165185Y0119370D01*
X0165214Y0119248D01*
X0165240Y0119126D01*
X0165262Y0119003D01*
X0165279Y0118879D01*
X0165293Y0118755D01*
X0165303Y0118631D01*
X0165309Y0118506D01*
X0165311Y0118381D01*
X0165309Y0118256D01*
X0165303Y0118131D01*
X0165293Y0118007D01*
X0165279Y0117883D01*
X0165262Y0117759D01*
X0165240Y0117636D01*
X0165214Y0117514D01*
X0165185Y0117392D01*
X0165152Y0117272D01*
X0165114Y0117153D01*
X0165074Y0117034D01*
X0165029Y0116918D01*
X0164981Y0116803D01*
X0164929Y0116689D01*
X0164873Y0116577D01*
X0164814Y0116467D01*
X0164752Y0116359D01*
X0164686Y0116252D01*
X0164617Y0116148D01*
X0164544Y0116047D01*
X0164469Y0115947D01*
X0164390Y0115850D01*
X0164308Y0115756D01*
X0164223Y0115664D01*
X0164136Y0115575D01*
X0164045Y0115489D01*
X0163952Y0115406D01*
X0163856Y0115325D01*
X0163758Y0115248D01*
X0163658Y0115174D01*
X0163555Y0115103D01*
X0163450Y0115036D01*
X0163342Y0114971D01*
X0163233Y0114911D01*
X0163122Y0114853D01*
X0163009Y0114800D01*
X0162895Y0114750D01*
X0162779Y0114703D01*
X0162662Y0114661D01*
X0162543Y0114622D01*
X0162423Y0114586D01*
X0162302Y0114555D01*
X0162180Y0114527D01*
X0162058Y0114504D01*
X0161934Y0114484D01*
X0161810Y0114468D01*
X0161686Y0114456D01*
X0161561Y0114448D01*
X0161436Y0114444D01*
X0161312Y0114444D01*
X0161187Y0114448D01*
X0161062Y0114456D01*
X0160938Y0114468D01*
X0160814Y0114484D01*
X0160690Y0114504D01*
X0160568Y0114527D01*
X0160446Y0114555D01*
X0160325Y0114586D01*
X0160205Y0114622D01*
X0160086Y0114661D01*
X0159969Y0114703D01*
X0159853Y0114750D01*
X0159739Y0114800D01*
X0159626Y0114853D01*
X0159515Y0114911D01*
X0159405Y0114971D01*
X0159298Y0115036D01*
X0159193Y0115103D01*
X0159090Y0115174D01*
X0158990Y0115248D01*
X0158892Y0115325D01*
X0158796Y0115406D01*
X0158703Y0115489D01*
X0158612Y0115575D01*
X0158525Y0115664D01*
X0158440Y0115756D01*
X0158358Y0115850D01*
X0158279Y0115947D01*
X0158204Y0116047D01*
X0158131Y0116148D01*
X0158062Y0116252D01*
X0157996Y0116359D01*
X0157934Y0116467D01*
X0157875Y0116577D01*
X0157819Y0116689D01*
X0157767Y0116803D01*
X0157719Y0116918D01*
X0157674Y0117034D01*
X0157634Y0117153D01*
X0157596Y0117272D01*
X0157563Y0117392D01*
X0157534Y0117514D01*
X0157508Y0117636D01*
X0157486Y0117759D01*
X0157469Y0117883D01*
X0157455Y0118007D01*
X0157445Y0118131D01*
X0157439Y0118256D01*
X0157437Y0118381D01*
D26*
X0090274Y0027937D03*
X0100274Y0027937D03*
X0100274Y0035024D03*
X0090274Y0035024D03*
X0135474Y0029024D03*
X0135474Y0021937D03*
X0166474Y0022237D03*
X0166474Y0029324D03*
D27*
X0235730Y0051481D03*
X0242817Y0051481D03*
X0242817Y0058481D03*
X0235730Y0058481D03*
X0235730Y0068481D03*
X0242817Y0068481D03*
X0242817Y0088481D03*
X0235730Y0088481D03*
X0146617Y0090181D03*
X0139530Y0090181D03*
M02*
