G75*
%MOIN*%
%OFA0B0*%
%FSLAX25Y25*%
%IPPOS*%
%LPD*%
%AMOC8*
5,1,8,0,0,1.08239X$1,22.5*
%
%ADD10C,0.06000*%
%ADD11C,0.10950*%
%ADD12R,0.07400X0.07400*%
%ADD13C,0.07400*%
%ADD14C,0.03762*%
%ADD15C,0.00600*%
%ADD16OC8,0.16598*%
%ADD17C,0.01600*%
D10*
X0014274Y0036481D02*
X0020274Y0036481D01*
X0020274Y0046481D02*
X0014274Y0046481D01*
X0248274Y0048481D02*
X0254274Y0048481D01*
X0254274Y0058481D02*
X0248274Y0058481D01*
X0248274Y0068481D02*
X0254274Y0068481D01*
X0254274Y0078481D02*
X0248274Y0078481D01*
X0248274Y0088481D02*
X0254274Y0088481D01*
X0254274Y0098481D02*
X0248274Y0098481D01*
D11*
X0233274Y0105481D03*
X0204274Y0105481D03*
X0204274Y0042481D03*
X0233274Y0042481D03*
X0064274Y0042481D03*
X0035274Y0042481D03*
X0035274Y0105481D03*
X0064274Y0105481D03*
D12*
X0090274Y0020481D03*
D13*
X0100274Y0020481D03*
X0110274Y0020481D03*
X0120274Y0020481D03*
D14*
X0135374Y0017381D03*
X0142074Y0017581D03*
X0151074Y0013481D03*
X0166274Y0017181D03*
X0160074Y0032481D03*
X0163674Y0043581D03*
X0151074Y0048481D03*
X0145574Y0050681D03*
X0145674Y0044781D03*
X0134274Y0053481D03*
X0120274Y0051481D03*
X0101274Y0055481D03*
X0087274Y0052481D03*
X0070274Y0063481D03*
X0102274Y0070481D03*
X0101274Y0085481D03*
X0087274Y0087481D03*
X0120274Y0087481D03*
X0124874Y0095381D03*
X0132274Y0095381D03*
X0152674Y0090181D03*
X0161274Y0095481D03*
X0183674Y0092381D03*
X0183874Y0083781D03*
X0168274Y0073481D03*
X0158174Y0068381D03*
X0146974Y0068581D03*
X0139274Y0063481D03*
X0138274Y0078481D03*
X0185274Y0063481D03*
X0194274Y0032481D03*
X0234274Y0018481D03*
X0028274Y0066481D03*
D15*
X0124874Y0095381D02*
X0132274Y0095381D01*
X0146974Y0068581D02*
X0157974Y0068581D01*
X0158174Y0068381D01*
X0139274Y0063481D02*
X0185274Y0063481D01*
X0151074Y0048481D02*
X0151074Y0013481D01*
X0148474Y0010481D02*
X0145674Y0013281D01*
X0145674Y0044781D01*
X0141874Y0049381D02*
X0143174Y0050681D01*
X0145574Y0050681D01*
X0141874Y0049381D02*
X0141874Y0017781D01*
X0142074Y0017581D01*
X0148474Y0010481D02*
X0154874Y0010481D01*
X0155074Y0010681D01*
X0155074Y0013381D01*
X0155274Y0013581D01*
X0155174Y0013581D01*
X0155174Y0027581D01*
X0160074Y0032481D01*
X0183874Y0083781D02*
X0183674Y0083981D01*
X0183674Y0092381D01*
D16*
X0251274Y0126481D03*
X0251274Y0021481D03*
X0017274Y0021481D03*
X0017274Y0126481D03*
D17*
X0007574Y0136881D02*
X0007574Y0010781D01*
X0145769Y0010781D01*
X0144969Y0011581D01*
X0143974Y0012577D01*
X0143974Y0014841D01*
X0143932Y0014799D01*
X0142726Y0014300D01*
X0141421Y0014300D01*
X0140215Y0014799D01*
X0139292Y0015722D01*
X0138793Y0016928D01*
X0138793Y0018233D01*
X0139292Y0019439D01*
X0140174Y0020321D01*
X0140174Y0050085D01*
X0141474Y0051385D01*
X0142469Y0052381D01*
X0142726Y0052381D01*
X0142792Y0052539D01*
X0143715Y0053462D01*
X0144921Y0053962D01*
X0146226Y0053962D01*
X0147432Y0053462D01*
X0148355Y0052539D01*
X0148855Y0051333D01*
X0148855Y0050902D01*
X0149215Y0051262D01*
X0150421Y0051762D01*
X0151726Y0051762D01*
X0152932Y0051262D01*
X0153855Y0050339D01*
X0154355Y0049133D01*
X0154355Y0047828D01*
X0153855Y0046622D01*
X0152932Y0045699D01*
X0152774Y0045633D01*
X0152774Y0016328D01*
X0152932Y0016262D01*
X0153474Y0015721D01*
X0153474Y0028285D01*
X0154469Y0029281D01*
X0156858Y0031669D01*
X0156793Y0031828D01*
X0156793Y0033133D01*
X0157292Y0034339D01*
X0158215Y0035262D01*
X0159421Y0035762D01*
X0160726Y0035762D01*
X0161932Y0035262D01*
X0162855Y0034339D01*
X0163355Y0033133D01*
X0163355Y0031828D01*
X0162855Y0030622D01*
X0161932Y0029699D01*
X0160726Y0029200D01*
X0159421Y0029200D01*
X0159262Y0029265D01*
X0156874Y0026877D01*
X0156874Y0014385D01*
X0156974Y0014285D01*
X0156974Y0012877D01*
X0156774Y0012677D01*
X0156774Y0010781D01*
X0261895Y0010781D01*
X0261895Y0136881D01*
X0007574Y0136881D01*
X0007574Y0135306D02*
X0012382Y0135306D01*
X0013256Y0136180D02*
X0007574Y0130498D01*
X0007574Y0122463D01*
X0013256Y0116781D01*
X0021291Y0116781D01*
X0026474Y0121964D01*
X0026474Y0085942D01*
X0027235Y0085181D01*
X0065812Y0085181D01*
X0066574Y0085942D01*
X0066574Y0098992D01*
X0068168Y0099652D01*
X0070102Y0101586D01*
X0071149Y0104113D01*
X0071149Y0106848D01*
X0070102Y0109375D01*
X0068168Y0111309D01*
X0066574Y0111969D01*
X0066574Y0125019D01*
X0065812Y0125781D01*
X0064735Y0125781D01*
X0028312Y0125781D01*
X0027235Y0125781D01*
X0026973Y0125518D01*
X0026973Y0130498D01*
X0021291Y0136180D01*
X0013256Y0136180D01*
X0010783Y0133707D02*
X0007574Y0133707D01*
X0007574Y0132109D02*
X0009185Y0132109D01*
X0007586Y0130510D02*
X0007574Y0130510D01*
X0007574Y0128911D02*
X0007574Y0128911D01*
X0007574Y0127313D02*
X0007574Y0127313D01*
X0007574Y0125714D02*
X0007574Y0125714D01*
X0007574Y0124116D02*
X0007574Y0124116D01*
X0007574Y0122517D02*
X0007574Y0122517D01*
X0007574Y0120919D02*
X0009119Y0120919D01*
X0007574Y0119320D02*
X0010717Y0119320D01*
X0012316Y0117722D02*
X0007574Y0117722D01*
X0007574Y0116123D02*
X0026474Y0116123D01*
X0026474Y0117722D02*
X0022232Y0117722D01*
X0023830Y0119320D02*
X0026474Y0119320D01*
X0026474Y0120919D02*
X0025429Y0120919D01*
X0026973Y0125714D02*
X0027169Y0125714D01*
X0026973Y0127313D02*
X0241574Y0127313D01*
X0241312Y0125781D02*
X0202735Y0125781D01*
X0201974Y0125019D01*
X0201974Y0111969D01*
X0200379Y0111309D01*
X0198445Y0109375D01*
X0197399Y0106848D01*
X0197399Y0104113D01*
X0198445Y0101586D01*
X0200379Y0099652D01*
X0201974Y0098992D01*
X0201974Y0085942D01*
X0202735Y0085181D01*
X0203812Y0085181D01*
X0240235Y0085181D01*
X0241312Y0085181D01*
X0242074Y0085942D01*
X0242074Y0121964D01*
X0247256Y0116781D01*
X0255291Y0116781D01*
X0260973Y0122463D01*
X0260973Y0130498D01*
X0255291Y0136180D01*
X0247256Y0136180D01*
X0241574Y0130498D01*
X0241574Y0125518D01*
X0241312Y0125781D01*
X0241378Y0125714D02*
X0241574Y0125714D01*
X0241574Y0128911D02*
X0026973Y0128911D01*
X0026961Y0130510D02*
X0241586Y0130510D01*
X0243185Y0132109D02*
X0025363Y0132109D01*
X0023764Y0133707D02*
X0244783Y0133707D01*
X0246382Y0135306D02*
X0022166Y0135306D01*
X0026474Y0114525D02*
X0007574Y0114525D01*
X0007574Y0112926D02*
X0026474Y0112926D01*
X0026474Y0111328D02*
X0007574Y0111328D01*
X0007574Y0109729D02*
X0026474Y0109729D01*
X0026474Y0108131D02*
X0007574Y0108131D01*
X0007574Y0106532D02*
X0026474Y0106532D01*
X0026474Y0104934D02*
X0007574Y0104934D01*
X0007574Y0103335D02*
X0026474Y0103335D01*
X0026474Y0101737D02*
X0007574Y0101737D01*
X0007574Y0100138D02*
X0026474Y0100138D01*
X0026474Y0098540D02*
X0007574Y0098540D01*
X0007574Y0096941D02*
X0026474Y0096941D01*
X0026474Y0095343D02*
X0007574Y0095343D01*
X0007574Y0093744D02*
X0026474Y0093744D01*
X0026474Y0092146D02*
X0007574Y0092146D01*
X0007574Y0090547D02*
X0026474Y0090547D01*
X0026474Y0088949D02*
X0007574Y0088949D01*
X0007574Y0087350D02*
X0026474Y0087350D01*
X0026664Y0085752D02*
X0007574Y0085752D01*
X0007574Y0084153D02*
X0180593Y0084153D01*
X0180593Y0084433D02*
X0180593Y0083128D01*
X0181092Y0081922D01*
X0182015Y0080999D01*
X0183221Y0080500D01*
X0184526Y0080500D01*
X0185732Y0080999D01*
X0186655Y0081922D01*
X0187155Y0083128D01*
X0187155Y0084433D01*
X0186655Y0085639D01*
X0185732Y0086562D01*
X0185374Y0086711D01*
X0185374Y0089533D01*
X0185532Y0089599D01*
X0186455Y0090522D01*
X0186955Y0091728D01*
X0186955Y0093033D01*
X0186455Y0094239D01*
X0185532Y0095162D01*
X0184326Y0095662D01*
X0183021Y0095662D01*
X0181815Y0095162D01*
X0180892Y0094239D01*
X0180393Y0093033D01*
X0180393Y0091728D01*
X0180892Y0090522D01*
X0181815Y0089599D01*
X0181974Y0089533D01*
X0181974Y0086521D01*
X0181092Y0085639D01*
X0180593Y0084433D01*
X0181204Y0085752D02*
X0123109Y0085752D01*
X0123055Y0085622D02*
X0123555Y0086828D01*
X0123555Y0088133D01*
X0123055Y0089339D01*
X0122132Y0090262D01*
X0120926Y0090762D01*
X0119621Y0090762D01*
X0118415Y0090262D01*
X0117492Y0089339D01*
X0116993Y0088133D01*
X0116993Y0086828D01*
X0117492Y0085622D01*
X0118415Y0084699D01*
X0119621Y0084200D01*
X0120926Y0084200D01*
X0122132Y0084699D01*
X0123055Y0085622D01*
X0123555Y0087350D02*
X0181974Y0087350D01*
X0185374Y0087350D02*
X0201974Y0087350D01*
X0202164Y0085752D02*
X0186543Y0085752D01*
X0187155Y0084153D02*
X0247223Y0084153D01*
X0247398Y0084081D02*
X0255149Y0084081D01*
X0256766Y0084751D01*
X0258004Y0085988D01*
X0258674Y0087605D01*
X0258674Y0089356D01*
X0258004Y0090973D01*
X0256766Y0092211D01*
X0255149Y0092881D01*
X0247398Y0092881D01*
X0245781Y0092211D01*
X0244543Y0090973D01*
X0243874Y0089356D01*
X0243874Y0087605D01*
X0244543Y0085988D01*
X0245781Y0084751D01*
X0247398Y0084081D01*
X0247896Y0083281D02*
X0247150Y0083162D01*
X0246431Y0082929D01*
X0245758Y0082586D01*
X0245147Y0082142D01*
X0244612Y0081608D01*
X0244168Y0080996D01*
X0243825Y0080323D01*
X0243592Y0079605D01*
X0243474Y0078858D01*
X0243474Y0078681D01*
X0251074Y0078681D01*
X0251074Y0083281D01*
X0247896Y0083281D01*
X0245715Y0082555D02*
X0186917Y0082555D01*
X0185629Y0080956D02*
X0244148Y0080956D01*
X0243553Y0079358D02*
X0013325Y0079358D01*
X0013084Y0079458D02*
X0014580Y0078838D01*
X0015725Y0077693D01*
X0016345Y0076196D01*
X0016345Y0074576D01*
X0015725Y0073080D01*
X0014580Y0071934D01*
X0013084Y0071315D01*
X0011464Y0071315D01*
X0009967Y0071934D01*
X0008822Y0073080D01*
X0008202Y0074576D01*
X0008202Y0076196D01*
X0008822Y0077693D01*
X0009967Y0078838D01*
X0011464Y0079458D01*
X0013084Y0079458D01*
X0011222Y0079358D02*
X0007574Y0079358D01*
X0007574Y0080956D02*
X0182119Y0080956D01*
X0180830Y0082555D02*
X0007574Y0082555D01*
X0007574Y0077759D02*
X0008888Y0077759D01*
X0008202Y0076161D02*
X0007574Y0076161D01*
X0007574Y0074562D02*
X0008208Y0074562D01*
X0007574Y0072964D02*
X0008938Y0072964D01*
X0007574Y0071365D02*
X0011342Y0071365D01*
X0013206Y0071365D02*
X0099089Y0071365D01*
X0098993Y0071133D02*
X0098993Y0069828D01*
X0099492Y0068622D01*
X0100415Y0067699D01*
X0101621Y0067200D01*
X0102926Y0067200D01*
X0104132Y0067699D01*
X0105055Y0068622D01*
X0105555Y0069828D01*
X0105555Y0071133D01*
X0105055Y0072339D01*
X0104132Y0073262D01*
X0102926Y0073762D01*
X0101621Y0073762D01*
X0100415Y0073262D01*
X0099492Y0072339D01*
X0098993Y0071133D01*
X0099018Y0069767D02*
X0007574Y0069767D01*
X0007574Y0068168D02*
X0099946Y0068168D01*
X0104601Y0068168D02*
X0143693Y0068168D01*
X0143693Y0067928D02*
X0144192Y0066722D01*
X0145115Y0065799D01*
X0146321Y0065300D01*
X0147626Y0065300D01*
X0148832Y0065799D01*
X0149755Y0066722D01*
X0149821Y0066881D01*
X0155244Y0066881D01*
X0155392Y0066522D01*
X0156315Y0065599D01*
X0157325Y0065181D01*
X0142121Y0065181D01*
X0142055Y0065339D01*
X0141132Y0066262D01*
X0139926Y0066762D01*
X0138621Y0066762D01*
X0137415Y0066262D01*
X0136492Y0065339D01*
X0135993Y0064133D01*
X0135993Y0062828D01*
X0136492Y0061622D01*
X0137415Y0060699D01*
X0138621Y0060200D01*
X0139926Y0060200D01*
X0141132Y0060699D01*
X0142055Y0061622D01*
X0142121Y0061781D01*
X0182426Y0061781D01*
X0182492Y0061622D01*
X0183415Y0060699D01*
X0184621Y0060200D01*
X0185926Y0060200D01*
X0187132Y0060699D01*
X0188055Y0061622D01*
X0188555Y0062828D01*
X0188555Y0064133D01*
X0188055Y0065339D01*
X0187132Y0066262D01*
X0185926Y0066762D01*
X0184621Y0066762D01*
X0183415Y0066262D01*
X0182492Y0065339D01*
X0182426Y0065181D01*
X0159022Y0065181D01*
X0160032Y0065599D01*
X0160955Y0066522D01*
X0161455Y0067728D01*
X0161455Y0069033D01*
X0160955Y0070239D01*
X0160032Y0071162D01*
X0158826Y0071662D01*
X0157521Y0071662D01*
X0156315Y0071162D01*
X0155433Y0070281D01*
X0149821Y0070281D01*
X0149755Y0070439D01*
X0148832Y0071362D01*
X0147626Y0071862D01*
X0146321Y0071862D01*
X0145115Y0071362D01*
X0144192Y0070439D01*
X0143693Y0069233D01*
X0143693Y0067928D01*
X0144345Y0066570D02*
X0140390Y0066570D01*
X0138157Y0066570D02*
X0015037Y0066570D01*
X0014580Y0067027D02*
X0013084Y0067647D01*
X0011464Y0067647D01*
X0009967Y0067027D01*
X0008822Y0065882D01*
X0008202Y0064385D01*
X0008202Y0062765D01*
X0008822Y0061269D01*
X0009967Y0060123D01*
X0011464Y0059504D01*
X0013084Y0059504D01*
X0014580Y0060123D01*
X0015725Y0061269D01*
X0016345Y0062765D01*
X0016345Y0064385D01*
X0015725Y0065882D01*
X0014580Y0067027D01*
X0016103Y0064971D02*
X0136340Y0064971D01*
X0135993Y0063373D02*
X0016345Y0063373D01*
X0015935Y0061774D02*
X0026474Y0061774D01*
X0026474Y0062019D02*
X0026474Y0025997D01*
X0021291Y0031180D01*
X0013256Y0031180D01*
X0007574Y0025498D01*
X0007574Y0017463D01*
X0013256Y0011781D01*
X0021291Y0011781D01*
X0026973Y0017463D01*
X0026973Y0022443D01*
X0027235Y0022181D01*
X0065812Y0022181D01*
X0066574Y0022942D01*
X0066574Y0035992D01*
X0068168Y0036652D01*
X0070102Y0038586D01*
X0071149Y0041113D01*
X0071149Y0043848D01*
X0070102Y0046375D01*
X0068168Y0048309D01*
X0066574Y0048969D01*
X0066574Y0062019D01*
X0065812Y0062781D01*
X0064735Y0062781D01*
X0028312Y0062781D01*
X0027235Y0062781D01*
X0026474Y0062019D01*
X0026474Y0060176D02*
X0014632Y0060176D01*
X0009915Y0060176D02*
X0007574Y0060176D01*
X0007574Y0061774D02*
X0008613Y0061774D01*
X0008202Y0063373D02*
X0007574Y0063373D01*
X0007574Y0064971D02*
X0008445Y0064971D01*
X0007574Y0066570D02*
X0009510Y0066570D01*
X0015609Y0072964D02*
X0100116Y0072964D01*
X0104431Y0072964D02*
X0261895Y0072964D01*
X0261895Y0071365D02*
X0257612Y0071365D01*
X0258004Y0070973D02*
X0256766Y0072211D01*
X0255149Y0072881D01*
X0247398Y0072881D01*
X0245781Y0072211D01*
X0244543Y0070973D01*
X0243874Y0069356D01*
X0243874Y0067605D01*
X0244543Y0065988D01*
X0245781Y0064751D01*
X0247398Y0064081D01*
X0255149Y0064081D01*
X0256766Y0064751D01*
X0258004Y0065988D01*
X0258674Y0067605D01*
X0258674Y0069356D01*
X0258004Y0070973D01*
X0258504Y0069767D02*
X0261895Y0069767D01*
X0261895Y0068168D02*
X0258674Y0068168D01*
X0258245Y0066570D02*
X0261895Y0066570D01*
X0261895Y0064971D02*
X0256987Y0064971D01*
X0256766Y0062211D02*
X0255149Y0062881D01*
X0247398Y0062881D01*
X0245781Y0062211D01*
X0244543Y0060973D01*
X0243874Y0059356D01*
X0243874Y0057605D01*
X0244543Y0055988D01*
X0245781Y0054751D01*
X0247398Y0054081D01*
X0255149Y0054081D01*
X0256766Y0054751D01*
X0258004Y0055988D01*
X0258674Y0057605D01*
X0258674Y0059356D01*
X0258004Y0060973D01*
X0256766Y0062211D01*
X0257203Y0061774D02*
X0261895Y0061774D01*
X0261895Y0060176D02*
X0258334Y0060176D01*
X0258674Y0058577D02*
X0261895Y0058577D01*
X0261895Y0056978D02*
X0258414Y0056978D01*
X0257395Y0055380D02*
X0261895Y0055380D01*
X0261895Y0053781D02*
X0242074Y0053781D01*
X0242074Y0052183D02*
X0245753Y0052183D01*
X0245781Y0052211D02*
X0244543Y0050973D01*
X0243874Y0049356D01*
X0243874Y0047605D01*
X0244543Y0045988D01*
X0245781Y0044751D01*
X0247398Y0044081D01*
X0255149Y0044081D01*
X0256766Y0044751D01*
X0258004Y0045988D01*
X0258674Y0047605D01*
X0258674Y0049356D01*
X0258004Y0050973D01*
X0256766Y0052211D01*
X0255149Y0052881D01*
X0247398Y0052881D01*
X0245781Y0052211D01*
X0244383Y0050584D02*
X0242074Y0050584D01*
X0242074Y0048986D02*
X0243874Y0048986D01*
X0243964Y0047387D02*
X0242074Y0047387D01*
X0242074Y0045789D02*
X0244743Y0045789D01*
X0247134Y0044190D02*
X0242074Y0044190D01*
X0242074Y0042592D02*
X0261895Y0042592D01*
X0261895Y0044190D02*
X0255414Y0044190D01*
X0257804Y0045789D02*
X0261895Y0045789D01*
X0261895Y0047387D02*
X0258583Y0047387D01*
X0258674Y0048986D02*
X0261895Y0048986D01*
X0261895Y0050584D02*
X0258165Y0050584D01*
X0256794Y0052183D02*
X0261895Y0052183D01*
X0245152Y0055380D02*
X0242074Y0055380D01*
X0242074Y0056978D02*
X0244133Y0056978D01*
X0243874Y0058577D02*
X0242074Y0058577D01*
X0242074Y0060176D02*
X0244213Y0060176D01*
X0245344Y0061774D02*
X0242074Y0061774D01*
X0242074Y0062019D02*
X0241312Y0062781D01*
X0202735Y0062781D01*
X0201974Y0062019D01*
X0201974Y0048969D01*
X0200379Y0048309D01*
X0198445Y0046375D01*
X0197399Y0043848D01*
X0197399Y0041113D01*
X0198445Y0038586D01*
X0200379Y0036652D01*
X0201974Y0035992D01*
X0201974Y0022942D01*
X0202735Y0022181D01*
X0203812Y0022181D01*
X0240235Y0022181D01*
X0241312Y0022181D01*
X0241574Y0022443D01*
X0241574Y0017463D01*
X0247256Y0011781D01*
X0255291Y0011781D01*
X0260973Y0017463D01*
X0260973Y0025498D01*
X0255291Y0031180D01*
X0247256Y0031180D01*
X0242074Y0025997D01*
X0242074Y0062019D01*
X0245561Y0064971D02*
X0188208Y0064971D01*
X0188555Y0063373D02*
X0261895Y0063373D01*
X0244935Y0071365D02*
X0159543Y0071365D01*
X0161151Y0069767D02*
X0244044Y0069767D01*
X0243874Y0068168D02*
X0161455Y0068168D01*
X0160975Y0066570D02*
X0184157Y0066570D01*
X0186390Y0066570D02*
X0244303Y0066570D01*
X0246431Y0074032D02*
X0247150Y0073799D01*
X0247896Y0073681D01*
X0251074Y0073681D01*
X0251074Y0078281D01*
X0251474Y0078281D01*
X0251474Y0078681D01*
X0251074Y0078681D01*
X0251074Y0078281D01*
X0243474Y0078281D01*
X0243474Y0078103D01*
X0243592Y0077357D01*
X0243825Y0076638D01*
X0244168Y0075965D01*
X0244612Y0075354D01*
X0245147Y0074819D01*
X0245758Y0074375D01*
X0246431Y0074032D01*
X0245501Y0074562D02*
X0016339Y0074562D01*
X0016345Y0076161D02*
X0244069Y0076161D01*
X0243528Y0077759D02*
X0015659Y0077759D01*
X0007574Y0058577D02*
X0026474Y0058577D01*
X0026474Y0056978D02*
X0007574Y0056978D01*
X0007574Y0055380D02*
X0026474Y0055380D01*
X0026474Y0053781D02*
X0007574Y0053781D01*
X0007574Y0052183D02*
X0026474Y0052183D01*
X0026474Y0050584D02*
X0022792Y0050584D01*
X0022789Y0050586D02*
X0022116Y0050929D01*
X0021398Y0051162D01*
X0020651Y0051281D01*
X0017474Y0051281D01*
X0017474Y0046681D01*
X0017074Y0046681D01*
X0017074Y0051281D01*
X0013896Y0051281D01*
X0013150Y0051162D01*
X0012431Y0050929D01*
X0011758Y0050586D01*
X0011147Y0050142D01*
X0010612Y0049608D01*
X0010168Y0048996D01*
X0009825Y0048323D01*
X0009592Y0047605D01*
X0009474Y0046858D01*
X0009474Y0046681D01*
X0017074Y0046681D01*
X0017074Y0046281D01*
X0017474Y0046281D01*
X0017474Y0046681D01*
X0025074Y0046681D01*
X0025074Y0046858D01*
X0024955Y0047605D01*
X0024722Y0048323D01*
X0024379Y0048996D01*
X0023935Y0049608D01*
X0023401Y0050142D01*
X0022789Y0050586D01*
X0024384Y0048986D02*
X0026474Y0048986D01*
X0026474Y0047387D02*
X0024990Y0047387D01*
X0025074Y0046281D02*
X0017474Y0046281D01*
X0017474Y0041681D01*
X0020651Y0041681D01*
X0021398Y0041799D01*
X0022116Y0042032D01*
X0022789Y0042375D01*
X0023401Y0042819D01*
X0023935Y0043354D01*
X0024379Y0043965D01*
X0024722Y0044638D01*
X0024955Y0045357D01*
X0025074Y0046103D01*
X0025074Y0046281D01*
X0025024Y0045789D02*
X0026474Y0045789D01*
X0026474Y0044190D02*
X0024494Y0044190D01*
X0023087Y0042592D02*
X0026474Y0042592D01*
X0026474Y0040993D02*
X0007574Y0040993D01*
X0007574Y0039395D02*
X0010965Y0039395D01*
X0010543Y0038973D02*
X0009874Y0037356D01*
X0009874Y0035605D01*
X0010543Y0033988D01*
X0011781Y0032751D01*
X0013398Y0032081D01*
X0021149Y0032081D01*
X0022766Y0032751D01*
X0024004Y0033988D01*
X0024674Y0035605D01*
X0024674Y0037356D01*
X0024004Y0038973D01*
X0022766Y0040211D01*
X0021149Y0040881D01*
X0013398Y0040881D01*
X0011781Y0040211D01*
X0010543Y0038973D01*
X0010056Y0037796D02*
X0007574Y0037796D01*
X0007574Y0036198D02*
X0009874Y0036198D01*
X0010290Y0034599D02*
X0007574Y0034599D01*
X0007574Y0033001D02*
X0011531Y0033001D01*
X0007574Y0031402D02*
X0026474Y0031402D01*
X0026474Y0029804D02*
X0022667Y0029804D01*
X0024266Y0028205D02*
X0026474Y0028205D01*
X0026474Y0026607D02*
X0025864Y0026607D01*
X0026973Y0021811D02*
X0085174Y0021811D01*
X0085174Y0020213D02*
X0026973Y0020213D01*
X0026973Y0018614D02*
X0085174Y0018614D01*
X0085174Y0017016D02*
X0026525Y0017016D01*
X0024927Y0015417D02*
X0085957Y0015417D01*
X0085994Y0015381D02*
X0094554Y0015381D01*
X0095374Y0016201D01*
X0095374Y0018983D01*
X0095950Y0017592D01*
X0097385Y0016157D01*
X0099259Y0015381D01*
X0101288Y0015381D01*
X0103163Y0016157D01*
X0104597Y0017592D01*
X0105063Y0018718D01*
X0105177Y0018369D01*
X0105570Y0017598D01*
X0106078Y0016898D01*
X0106691Y0016286D01*
X0107391Y0015777D01*
X0108162Y0015384D01*
X0108986Y0015116D01*
X0109841Y0014981D01*
X0110074Y0014981D01*
X0110074Y0020281D01*
X0110474Y0020281D01*
X0110474Y0014981D01*
X0110706Y0014981D01*
X0111562Y0015116D01*
X0112385Y0015384D01*
X0113156Y0015777D01*
X0113857Y0016286D01*
X0114469Y0016898D01*
X0114978Y0017598D01*
X0115371Y0018369D01*
X0115484Y0018718D01*
X0115950Y0017592D01*
X0117385Y0016157D01*
X0119259Y0015381D01*
X0121288Y0015381D01*
X0123163Y0016157D01*
X0124597Y0017592D01*
X0125374Y0019466D01*
X0125374Y0021495D01*
X0124597Y0023370D01*
X0123163Y0024804D01*
X0121288Y0025581D01*
X0119259Y0025581D01*
X0117385Y0024804D01*
X0115950Y0023370D01*
X0115484Y0022244D01*
X0115371Y0022592D01*
X0114978Y0023363D01*
X0114469Y0024064D01*
X0113857Y0024676D01*
X0113156Y0025185D01*
X0112385Y0025578D01*
X0111562Y0025845D01*
X0110706Y0025981D01*
X0110474Y0025981D01*
X0110474Y0020681D01*
X0110074Y0020681D01*
X0110074Y0025981D01*
X0109841Y0025981D01*
X0108986Y0025845D01*
X0108162Y0025578D01*
X0107391Y0025185D01*
X0106691Y0024676D01*
X0106078Y0024064D01*
X0105570Y0023363D01*
X0105177Y0022592D01*
X0105063Y0022244D01*
X0104597Y0023370D01*
X0103163Y0024804D01*
X0101288Y0025581D01*
X0099259Y0025581D01*
X0097385Y0024804D01*
X0095950Y0023370D01*
X0095374Y0021978D01*
X0095374Y0024761D01*
X0094554Y0025581D01*
X0085994Y0025581D01*
X0085174Y0024761D01*
X0085174Y0016201D01*
X0085994Y0015381D01*
X0094590Y0015417D02*
X0099171Y0015417D01*
X0101376Y0015417D02*
X0108096Y0015417D01*
X0110074Y0015417D02*
X0110474Y0015417D01*
X0110474Y0017016D02*
X0110074Y0017016D01*
X0110074Y0018614D02*
X0110474Y0018614D01*
X0110474Y0020213D02*
X0110074Y0020213D01*
X0110074Y0021811D02*
X0110474Y0021811D01*
X0110474Y0023410D02*
X0110074Y0023410D01*
X0110074Y0025008D02*
X0110474Y0025008D01*
X0113399Y0025008D02*
X0117877Y0025008D01*
X0115990Y0023410D02*
X0114944Y0023410D01*
X0122670Y0025008D02*
X0140174Y0025008D01*
X0140174Y0023410D02*
X0124557Y0023410D01*
X0125243Y0021811D02*
X0140174Y0021811D01*
X0140065Y0020213D02*
X0125374Y0020213D01*
X0125021Y0018614D02*
X0138950Y0018614D01*
X0138793Y0017016D02*
X0124021Y0017016D01*
X0121376Y0015417D02*
X0139597Y0015417D01*
X0143974Y0013819D02*
X0023328Y0013819D01*
X0021730Y0012220D02*
X0144330Y0012220D01*
X0152774Y0017016D02*
X0153474Y0017016D01*
X0153474Y0018614D02*
X0152774Y0018614D01*
X0156874Y0018614D02*
X0241574Y0018614D01*
X0242022Y0017016D02*
X0156874Y0017016D01*
X0156874Y0015417D02*
X0243620Y0015417D01*
X0245219Y0013819D02*
X0156974Y0013819D01*
X0156774Y0012220D02*
X0246817Y0012220D01*
X0255730Y0012220D02*
X0261895Y0012220D01*
X0261895Y0013819D02*
X0257328Y0013819D01*
X0258927Y0015417D02*
X0261895Y0015417D01*
X0261895Y0017016D02*
X0260525Y0017016D01*
X0260973Y0018614D02*
X0261895Y0018614D01*
X0261895Y0020213D02*
X0260973Y0020213D01*
X0260973Y0021811D02*
X0261895Y0021811D01*
X0261895Y0023410D02*
X0260973Y0023410D01*
X0260973Y0025008D02*
X0261895Y0025008D01*
X0261895Y0026607D02*
X0259864Y0026607D01*
X0258266Y0028205D02*
X0261895Y0028205D01*
X0261895Y0029804D02*
X0256667Y0029804D01*
X0261895Y0031402D02*
X0242074Y0031402D01*
X0242074Y0029804D02*
X0245880Y0029804D01*
X0244281Y0028205D02*
X0242074Y0028205D01*
X0242074Y0026607D02*
X0242683Y0026607D01*
X0241574Y0021811D02*
X0156874Y0021811D01*
X0156874Y0020213D02*
X0241574Y0020213D01*
X0242074Y0033001D02*
X0261895Y0033001D01*
X0261895Y0034599D02*
X0242074Y0034599D01*
X0242074Y0036198D02*
X0261895Y0036198D01*
X0261895Y0037796D02*
X0242074Y0037796D01*
X0242074Y0039395D02*
X0261895Y0039395D01*
X0261895Y0040993D02*
X0242074Y0040993D01*
X0201974Y0034599D02*
X0162595Y0034599D01*
X0163355Y0033001D02*
X0201974Y0033001D01*
X0201974Y0031402D02*
X0163178Y0031402D01*
X0162037Y0029804D02*
X0201974Y0029804D01*
X0201974Y0028205D02*
X0158202Y0028205D01*
X0156874Y0026607D02*
X0201974Y0026607D01*
X0201974Y0025008D02*
X0156874Y0025008D01*
X0156874Y0023410D02*
X0201974Y0023410D01*
X0201477Y0036198D02*
X0152774Y0036198D01*
X0152774Y0037796D02*
X0199235Y0037796D01*
X0198110Y0039395D02*
X0152774Y0039395D01*
X0152774Y0040993D02*
X0197448Y0040993D01*
X0197399Y0042592D02*
X0152774Y0042592D01*
X0152774Y0044190D02*
X0197540Y0044190D01*
X0198202Y0045789D02*
X0153022Y0045789D01*
X0154172Y0047387D02*
X0199458Y0047387D01*
X0201974Y0048986D02*
X0154355Y0048986D01*
X0153610Y0050584D02*
X0201974Y0050584D01*
X0201974Y0052183D02*
X0148503Y0052183D01*
X0146662Y0053781D02*
X0201974Y0053781D01*
X0201974Y0055380D02*
X0088848Y0055380D01*
X0089132Y0055262D02*
X0087926Y0055762D01*
X0086621Y0055762D01*
X0085415Y0055262D01*
X0084492Y0054339D01*
X0083993Y0053133D01*
X0083993Y0051828D01*
X0084492Y0050622D01*
X0085415Y0049699D01*
X0086621Y0049200D01*
X0087926Y0049200D01*
X0089132Y0049699D01*
X0090055Y0050622D01*
X0090555Y0051828D01*
X0090555Y0053133D01*
X0090055Y0054339D01*
X0089132Y0055262D01*
X0090286Y0053781D02*
X0117934Y0053781D01*
X0117492Y0053339D02*
X0116993Y0052133D01*
X0116993Y0050828D01*
X0117492Y0049622D01*
X0118415Y0048699D01*
X0119621Y0048200D01*
X0120926Y0048200D01*
X0122132Y0048699D01*
X0123055Y0049622D01*
X0123555Y0050828D01*
X0123555Y0052133D01*
X0123055Y0053339D01*
X0122132Y0054262D01*
X0120926Y0054762D01*
X0119621Y0054762D01*
X0118415Y0054262D01*
X0117492Y0053339D01*
X0117013Y0052183D02*
X0090555Y0052183D01*
X0090018Y0050584D02*
X0117093Y0050584D01*
X0118128Y0048986D02*
X0066574Y0048986D01*
X0066574Y0050584D02*
X0084530Y0050584D01*
X0083993Y0052183D02*
X0066574Y0052183D01*
X0066574Y0053781D02*
X0084261Y0053781D01*
X0085699Y0055380D02*
X0066574Y0055380D01*
X0066574Y0056978D02*
X0201974Y0056978D01*
X0201974Y0058577D02*
X0066574Y0058577D01*
X0066574Y0060176D02*
X0201974Y0060176D01*
X0201974Y0061774D02*
X0188118Y0061774D01*
X0182429Y0061774D02*
X0142118Y0061774D01*
X0136429Y0061774D02*
X0066574Y0061774D01*
X0069090Y0047387D02*
X0140174Y0047387D01*
X0140174Y0048986D02*
X0122419Y0048986D01*
X0123454Y0050584D02*
X0140673Y0050584D01*
X0142272Y0052183D02*
X0123534Y0052183D01*
X0122613Y0053781D02*
X0144486Y0053781D01*
X0140174Y0045789D02*
X0070345Y0045789D01*
X0071007Y0044190D02*
X0140174Y0044190D01*
X0140174Y0042592D02*
X0071149Y0042592D01*
X0071099Y0040993D02*
X0140174Y0040993D01*
X0140174Y0039395D02*
X0070437Y0039395D01*
X0069312Y0037796D02*
X0140174Y0037796D01*
X0140174Y0036198D02*
X0067071Y0036198D01*
X0066574Y0034599D02*
X0140174Y0034599D01*
X0140174Y0033001D02*
X0066574Y0033001D01*
X0066574Y0031402D02*
X0140174Y0031402D01*
X0140174Y0029804D02*
X0066574Y0029804D01*
X0066574Y0028205D02*
X0140174Y0028205D01*
X0140174Y0026607D02*
X0066574Y0026607D01*
X0066574Y0025008D02*
X0085421Y0025008D01*
X0085174Y0023410D02*
X0066574Y0023410D01*
X0095126Y0025008D02*
X0097877Y0025008D01*
X0095990Y0023410D02*
X0095374Y0023410D01*
X0102670Y0025008D02*
X0107148Y0025008D01*
X0105603Y0023410D02*
X0104557Y0023410D01*
X0105021Y0018614D02*
X0105097Y0018614D01*
X0105993Y0017016D02*
X0104021Y0017016D01*
X0096526Y0017016D02*
X0095374Y0017016D01*
X0095374Y0018614D02*
X0095527Y0018614D01*
X0112451Y0015417D02*
X0119171Y0015417D01*
X0116526Y0017016D02*
X0114555Y0017016D01*
X0115450Y0018614D02*
X0115527Y0018614D01*
X0152774Y0020213D02*
X0153474Y0020213D01*
X0153474Y0021811D02*
X0152774Y0021811D01*
X0152774Y0023410D02*
X0153474Y0023410D01*
X0153474Y0025008D02*
X0152774Y0025008D01*
X0152774Y0026607D02*
X0153474Y0026607D01*
X0153474Y0028205D02*
X0152774Y0028205D01*
X0152774Y0029804D02*
X0154993Y0029804D01*
X0156591Y0031402D02*
X0152774Y0031402D01*
X0152774Y0033001D02*
X0156793Y0033001D01*
X0157552Y0034599D02*
X0152774Y0034599D01*
X0155372Y0066570D02*
X0149603Y0066570D01*
X0143913Y0069767D02*
X0105529Y0069767D01*
X0105459Y0071365D02*
X0145122Y0071365D01*
X0148825Y0071365D02*
X0156805Y0071365D01*
X0181974Y0088949D02*
X0123217Y0088949D01*
X0121444Y0090547D02*
X0180882Y0090547D01*
X0180393Y0092146D02*
X0133038Y0092146D01*
X0132926Y0092100D02*
X0134132Y0092599D01*
X0135055Y0093522D01*
X0135555Y0094728D01*
X0135555Y0096033D01*
X0135055Y0097239D01*
X0134132Y0098162D01*
X0132926Y0098662D01*
X0131621Y0098662D01*
X0130415Y0098162D01*
X0129492Y0097239D01*
X0129426Y0097081D01*
X0127721Y0097081D01*
X0127655Y0097239D01*
X0126732Y0098162D01*
X0125526Y0098662D01*
X0124221Y0098662D01*
X0123015Y0098162D01*
X0122092Y0097239D01*
X0121593Y0096033D01*
X0121593Y0094728D01*
X0122092Y0093522D01*
X0123015Y0092599D01*
X0124221Y0092100D01*
X0125526Y0092100D01*
X0126732Y0092599D01*
X0127655Y0093522D01*
X0127721Y0093681D01*
X0129426Y0093681D01*
X0129492Y0093522D01*
X0130415Y0092599D01*
X0131621Y0092100D01*
X0132926Y0092100D01*
X0131510Y0092146D02*
X0125638Y0092146D01*
X0124110Y0092146D02*
X0066574Y0092146D01*
X0066574Y0093744D02*
X0122000Y0093744D01*
X0121593Y0095343D02*
X0066574Y0095343D01*
X0066574Y0096941D02*
X0121969Y0096941D01*
X0123926Y0098540D02*
X0066574Y0098540D01*
X0068654Y0100138D02*
X0199893Y0100138D01*
X0201974Y0098540D02*
X0133221Y0098540D01*
X0131326Y0098540D02*
X0125821Y0098540D01*
X0135179Y0096941D02*
X0201974Y0096941D01*
X0201974Y0095343D02*
X0185096Y0095343D01*
X0186660Y0093744D02*
X0201974Y0093744D01*
X0201974Y0092146D02*
X0186955Y0092146D01*
X0186466Y0090547D02*
X0201974Y0090547D01*
X0201974Y0088949D02*
X0185374Y0088949D01*
X0180687Y0093744D02*
X0135147Y0093744D01*
X0135555Y0095343D02*
X0182251Y0095343D01*
X0198383Y0101737D02*
X0070164Y0101737D01*
X0070826Y0103335D02*
X0197721Y0103335D01*
X0197399Y0104934D02*
X0071149Y0104934D01*
X0071149Y0106532D02*
X0197399Y0106532D01*
X0197930Y0108131D02*
X0070617Y0108131D01*
X0069748Y0109729D02*
X0198800Y0109729D01*
X0200425Y0111328D02*
X0068122Y0111328D01*
X0066574Y0112926D02*
X0201974Y0112926D01*
X0201974Y0114525D02*
X0066574Y0114525D01*
X0066574Y0116123D02*
X0201974Y0116123D01*
X0201974Y0117722D02*
X0066574Y0117722D01*
X0066574Y0119320D02*
X0201974Y0119320D01*
X0201974Y0120919D02*
X0066574Y0120919D01*
X0066574Y0122517D02*
X0201974Y0122517D01*
X0201974Y0124116D02*
X0066574Y0124116D01*
X0065878Y0125714D02*
X0202669Y0125714D01*
X0242074Y0120919D02*
X0243119Y0120919D01*
X0242074Y0119320D02*
X0244717Y0119320D01*
X0246316Y0117722D02*
X0242074Y0117722D01*
X0242074Y0116123D02*
X0261895Y0116123D01*
X0261895Y0117722D02*
X0256232Y0117722D01*
X0257830Y0119320D02*
X0261895Y0119320D01*
X0261895Y0120919D02*
X0259429Y0120919D01*
X0260973Y0122517D02*
X0261895Y0122517D01*
X0261895Y0124116D02*
X0260973Y0124116D01*
X0260973Y0125714D02*
X0261895Y0125714D01*
X0261895Y0127313D02*
X0260973Y0127313D01*
X0260973Y0128911D02*
X0261895Y0128911D01*
X0261895Y0130510D02*
X0260961Y0130510D01*
X0261895Y0132109D02*
X0259363Y0132109D01*
X0257764Y0133707D02*
X0261895Y0133707D01*
X0261895Y0135306D02*
X0256166Y0135306D01*
X0261895Y0114525D02*
X0242074Y0114525D01*
X0242074Y0112926D02*
X0261895Y0112926D01*
X0261895Y0111328D02*
X0242074Y0111328D01*
X0242074Y0109729D02*
X0261895Y0109729D01*
X0261895Y0108131D02*
X0242074Y0108131D01*
X0242074Y0106532D02*
X0261895Y0106532D01*
X0261895Y0104934D02*
X0242074Y0104934D01*
X0242074Y0103335D02*
X0261895Y0103335D01*
X0261895Y0101737D02*
X0257240Y0101737D01*
X0256766Y0102211D02*
X0255149Y0102881D01*
X0247398Y0102881D01*
X0245781Y0102211D01*
X0244543Y0100973D01*
X0243874Y0099356D01*
X0243874Y0097605D01*
X0244543Y0095988D01*
X0245781Y0094751D01*
X0247398Y0094081D01*
X0255149Y0094081D01*
X0256766Y0094751D01*
X0258004Y0095988D01*
X0258674Y0097605D01*
X0258674Y0099356D01*
X0258004Y0100973D01*
X0256766Y0102211D01*
X0258350Y0100138D02*
X0261895Y0100138D01*
X0261895Y0098540D02*
X0258674Y0098540D01*
X0258398Y0096941D02*
X0261895Y0096941D01*
X0261895Y0095343D02*
X0257358Y0095343D01*
X0256831Y0092146D02*
X0261895Y0092146D01*
X0261895Y0093744D02*
X0242074Y0093744D01*
X0242074Y0092146D02*
X0245716Y0092146D01*
X0244367Y0090547D02*
X0242074Y0090547D01*
X0242074Y0088949D02*
X0243874Y0088949D01*
X0243979Y0087350D02*
X0242074Y0087350D01*
X0241883Y0085752D02*
X0244780Y0085752D01*
X0251074Y0082555D02*
X0251474Y0082555D01*
X0251474Y0083281D02*
X0251474Y0078681D01*
X0259074Y0078681D01*
X0259074Y0078858D01*
X0258955Y0079605D01*
X0258722Y0080323D01*
X0258379Y0080996D01*
X0257935Y0081608D01*
X0257401Y0082142D01*
X0256789Y0082586D01*
X0256116Y0082929D01*
X0255398Y0083162D01*
X0254651Y0083281D01*
X0251474Y0083281D01*
X0255324Y0084153D02*
X0261895Y0084153D01*
X0261895Y0082555D02*
X0256832Y0082555D01*
X0258399Y0080956D02*
X0261895Y0080956D01*
X0261895Y0079358D02*
X0258995Y0079358D01*
X0259074Y0078281D02*
X0251474Y0078281D01*
X0251474Y0073681D01*
X0254651Y0073681D01*
X0255398Y0073799D01*
X0256116Y0074032D01*
X0256789Y0074375D01*
X0257401Y0074819D01*
X0257935Y0075354D01*
X0258379Y0075965D01*
X0258722Y0076638D01*
X0258955Y0077357D01*
X0259074Y0078103D01*
X0259074Y0078281D01*
X0259019Y0077759D02*
X0261895Y0077759D01*
X0261895Y0076161D02*
X0258479Y0076161D01*
X0257046Y0074562D02*
X0261895Y0074562D01*
X0251474Y0074562D02*
X0251074Y0074562D01*
X0251074Y0076161D02*
X0251474Y0076161D01*
X0251474Y0077759D02*
X0251074Y0077759D01*
X0251074Y0079358D02*
X0251474Y0079358D01*
X0251474Y0080956D02*
X0251074Y0080956D01*
X0257767Y0085752D02*
X0261895Y0085752D01*
X0261895Y0087350D02*
X0258568Y0087350D01*
X0258674Y0088949D02*
X0261895Y0088949D01*
X0261895Y0090547D02*
X0258180Y0090547D01*
X0245189Y0095343D02*
X0242074Y0095343D01*
X0242074Y0096941D02*
X0244149Y0096941D01*
X0243874Y0098540D02*
X0242074Y0098540D01*
X0242074Y0100138D02*
X0244198Y0100138D01*
X0245307Y0101737D02*
X0242074Y0101737D01*
X0119103Y0090547D02*
X0088444Y0090547D01*
X0087926Y0090762D02*
X0086621Y0090762D01*
X0085415Y0090262D01*
X0084492Y0089339D01*
X0083993Y0088133D01*
X0083993Y0086828D01*
X0084492Y0085622D01*
X0085415Y0084699D01*
X0086621Y0084200D01*
X0087926Y0084200D01*
X0089132Y0084699D01*
X0090055Y0085622D01*
X0090555Y0086828D01*
X0090555Y0088133D01*
X0090055Y0089339D01*
X0089132Y0090262D01*
X0087926Y0090762D01*
X0086103Y0090547D02*
X0066574Y0090547D01*
X0066574Y0088949D02*
X0084330Y0088949D01*
X0083993Y0087350D02*
X0066574Y0087350D01*
X0066383Y0085752D02*
X0084438Y0085752D01*
X0090109Y0085752D02*
X0117438Y0085752D01*
X0116993Y0087350D02*
X0090555Y0087350D01*
X0090217Y0088949D02*
X0117330Y0088949D01*
X0026474Y0039395D02*
X0023582Y0039395D01*
X0024491Y0037796D02*
X0026474Y0037796D01*
X0026474Y0036198D02*
X0024674Y0036198D01*
X0024257Y0034599D02*
X0026474Y0034599D01*
X0026474Y0033001D02*
X0023016Y0033001D01*
X0011880Y0029804D02*
X0007574Y0029804D01*
X0007574Y0028205D02*
X0010281Y0028205D01*
X0008683Y0026607D02*
X0007574Y0026607D01*
X0007574Y0025008D02*
X0007574Y0025008D01*
X0007574Y0023410D02*
X0007574Y0023410D01*
X0007574Y0021811D02*
X0007574Y0021811D01*
X0007574Y0020213D02*
X0007574Y0020213D01*
X0007574Y0018614D02*
X0007574Y0018614D01*
X0007574Y0017016D02*
X0008022Y0017016D01*
X0007574Y0015417D02*
X0009620Y0015417D01*
X0011219Y0013819D02*
X0007574Y0013819D01*
X0007574Y0012220D02*
X0012817Y0012220D01*
X0013896Y0041681D02*
X0013150Y0041799D01*
X0012431Y0042032D01*
X0011758Y0042375D01*
X0011147Y0042819D01*
X0010612Y0043354D01*
X0010168Y0043965D01*
X0009825Y0044638D01*
X0009592Y0045357D01*
X0009474Y0046103D01*
X0009474Y0046281D01*
X0017074Y0046281D01*
X0017074Y0041681D01*
X0013896Y0041681D01*
X0011460Y0042592D02*
X0007574Y0042592D01*
X0007574Y0044190D02*
X0010053Y0044190D01*
X0009523Y0045789D02*
X0007574Y0045789D01*
X0007574Y0047387D02*
X0009557Y0047387D01*
X0010163Y0048986D02*
X0007574Y0048986D01*
X0007574Y0050584D02*
X0011756Y0050584D01*
X0017074Y0050584D02*
X0017474Y0050584D01*
X0017474Y0048986D02*
X0017074Y0048986D01*
X0017074Y0047387D02*
X0017474Y0047387D01*
X0017474Y0045789D02*
X0017074Y0045789D01*
X0017074Y0044190D02*
X0017474Y0044190D01*
X0017474Y0042592D02*
X0017074Y0042592D01*
M02*
