G75*
%MOIN*%
%OFA0B0*%
%FSLAX25Y25*%
%IPPOS*%
%LPD*%
%AMOC8*
5,1,8,0,0,1.08239X$1,22.5*
%
%ADD10C,0.00400*%
%ADD11C,0.00500*%
%ADD12C,0.00600*%
%ADD13C,0.00800*%
%ADD14C,0.00100*%
%ADD15R,0.01800X0.03000*%
%ADD16C,0.02200*%
%ADD17C,0.01000*%
%ADD18C,0.00200*%
D10*
X0109089Y0055365D02*
X0109089Y0058435D01*
X0109857Y0059202D01*
X0111391Y0059202D01*
X0112159Y0058435D01*
X0112159Y0055365D01*
X0111391Y0054598D01*
X0109857Y0054598D01*
X0109089Y0055365D01*
X0110624Y0056133D02*
X0112159Y0054598D01*
X0113693Y0054598D02*
X0116763Y0054598D01*
X0115228Y0054598D02*
X0115228Y0059202D01*
X0113693Y0057667D01*
X0111006Y0095583D02*
X0111006Y0101721D01*
X0111773Y0100954D02*
X0112541Y0100187D01*
X0111773Y0100954D02*
X0110239Y0100954D01*
X0109471Y0100187D01*
X0109471Y0099419D01*
X0110239Y0098652D01*
X0111773Y0098652D01*
X0112541Y0097885D01*
X0112541Y0097117D01*
X0111773Y0096350D01*
X0110239Y0096350D01*
X0109471Y0097117D01*
X0107937Y0097117D02*
X0107937Y0100954D01*
X0104867Y0100954D02*
X0104867Y0097117D01*
X0105635Y0096350D01*
X0107169Y0096350D01*
X0107937Y0097117D01*
X0114075Y0096350D02*
X0117144Y0096350D01*
X0115610Y0096350D02*
X0115610Y0100954D01*
X0114075Y0099419D01*
D11*
X0009824Y0032181D02*
X0009073Y0031431D01*
X0009824Y0032181D02*
X0009824Y0032932D01*
X0009073Y0033683D01*
X0005320Y0033683D01*
X0005320Y0034433D02*
X0005320Y0032932D01*
X0005320Y0036035D02*
X0005320Y0038287D01*
X0006070Y0039037D01*
X0007572Y0039037D01*
X0008322Y0038287D01*
X0008322Y0036035D01*
X0009824Y0036035D02*
X0005320Y0036035D01*
X0007572Y0040639D02*
X0007572Y0043641D01*
X0009824Y0042890D02*
X0005320Y0042890D01*
X0007572Y0040639D01*
X0085224Y0028681D02*
X0085974Y0027931D01*
X0086725Y0027931D01*
X0087476Y0028681D01*
X0087476Y0032435D01*
X0088226Y0032435D02*
X0086725Y0032435D01*
X0089828Y0032435D02*
X0092079Y0032435D01*
X0092830Y0031684D01*
X0092830Y0030183D01*
X0092079Y0029432D01*
X0089828Y0029432D01*
X0089828Y0027931D02*
X0089828Y0032435D01*
X0094431Y0031684D02*
X0095182Y0032435D01*
X0096683Y0032435D01*
X0097434Y0031684D01*
X0097434Y0030933D01*
X0094431Y0027931D01*
X0097434Y0027931D01*
X0135179Y0044969D02*
X0166675Y0044969D01*
X0166675Y0076465D01*
X0140100Y0076465D01*
X0135179Y0071544D01*
X0135179Y0044969D01*
X0156095Y0030464D02*
X0158063Y0030464D01*
X0158063Y0028692D01*
X0157079Y0029480D02*
X0156095Y0029480D01*
X0157079Y0029480D02*
X0157079Y0026133D01*
X0157079Y0020228D02*
X0157079Y0016881D01*
X0156095Y0016881D01*
X0146252Y0016881D02*
X0145268Y0016881D01*
X0145268Y0020228D01*
X0145268Y0026133D02*
X0145268Y0029480D01*
X0146252Y0029480D01*
X0126088Y0083355D02*
X0126090Y0083448D01*
X0126096Y0083542D01*
X0126106Y0083635D01*
X0126120Y0083727D01*
X0126137Y0083819D01*
X0126159Y0083910D01*
X0126184Y0084000D01*
X0126214Y0084088D01*
X0126247Y0084176D01*
X0126283Y0084262D01*
X0126324Y0084346D01*
X0126367Y0084428D01*
X0126415Y0084509D01*
X0126465Y0084588D01*
X0126519Y0084664D01*
X0126577Y0084738D01*
X0126637Y0084809D01*
X0126700Y0084878D01*
X0126766Y0084944D01*
X0126835Y0085007D01*
X0126906Y0085067D01*
X0126980Y0085125D01*
X0127056Y0085179D01*
X0127135Y0085229D01*
X0127216Y0085277D01*
X0127298Y0085320D01*
X0127382Y0085361D01*
X0127468Y0085397D01*
X0127556Y0085430D01*
X0127644Y0085460D01*
X0127734Y0085485D01*
X0127825Y0085507D01*
X0127917Y0085524D01*
X0128009Y0085538D01*
X0128102Y0085548D01*
X0128196Y0085554D01*
X0128289Y0085556D01*
X0128382Y0085554D01*
X0128476Y0085548D01*
X0128569Y0085538D01*
X0128661Y0085524D01*
X0128753Y0085507D01*
X0128844Y0085485D01*
X0128934Y0085460D01*
X0129022Y0085430D01*
X0129110Y0085397D01*
X0129196Y0085361D01*
X0129280Y0085320D01*
X0129362Y0085277D01*
X0129443Y0085229D01*
X0129522Y0085179D01*
X0129598Y0085125D01*
X0129672Y0085067D01*
X0129743Y0085007D01*
X0129812Y0084944D01*
X0129878Y0084878D01*
X0129941Y0084809D01*
X0130001Y0084738D01*
X0130059Y0084664D01*
X0130113Y0084588D01*
X0130163Y0084509D01*
X0130211Y0084428D01*
X0130254Y0084346D01*
X0130295Y0084262D01*
X0130331Y0084176D01*
X0130364Y0084088D01*
X0130394Y0084000D01*
X0130419Y0083910D01*
X0130441Y0083819D01*
X0130458Y0083727D01*
X0130472Y0083635D01*
X0130482Y0083542D01*
X0130488Y0083448D01*
X0130490Y0083355D01*
X0130488Y0083262D01*
X0130482Y0083168D01*
X0130472Y0083075D01*
X0130458Y0082983D01*
X0130441Y0082891D01*
X0130419Y0082800D01*
X0130394Y0082710D01*
X0130364Y0082622D01*
X0130331Y0082534D01*
X0130295Y0082448D01*
X0130254Y0082364D01*
X0130211Y0082282D01*
X0130163Y0082201D01*
X0130113Y0082122D01*
X0130059Y0082046D01*
X0130001Y0081972D01*
X0129941Y0081901D01*
X0129878Y0081832D01*
X0129812Y0081766D01*
X0129743Y0081703D01*
X0129672Y0081643D01*
X0129598Y0081585D01*
X0129522Y0081531D01*
X0129443Y0081481D01*
X0129362Y0081433D01*
X0129280Y0081390D01*
X0129196Y0081349D01*
X0129110Y0081313D01*
X0129022Y0081280D01*
X0128934Y0081250D01*
X0128844Y0081225D01*
X0128753Y0081203D01*
X0128661Y0081186D01*
X0128569Y0081172D01*
X0128476Y0081162D01*
X0128382Y0081156D01*
X0128289Y0081154D01*
X0128196Y0081156D01*
X0128102Y0081162D01*
X0128009Y0081172D01*
X0127917Y0081186D01*
X0127825Y0081203D01*
X0127734Y0081225D01*
X0127644Y0081250D01*
X0127556Y0081280D01*
X0127468Y0081313D01*
X0127382Y0081349D01*
X0127298Y0081390D01*
X0127216Y0081433D01*
X0127135Y0081481D01*
X0127056Y0081531D01*
X0126980Y0081585D01*
X0126906Y0081643D01*
X0126835Y0081703D01*
X0126766Y0081766D01*
X0126700Y0081832D01*
X0126637Y0081901D01*
X0126577Y0081972D01*
X0126519Y0082046D01*
X0126465Y0082122D01*
X0126415Y0082201D01*
X0126367Y0082282D01*
X0126324Y0082364D01*
X0126283Y0082448D01*
X0126247Y0082534D01*
X0126214Y0082622D01*
X0126184Y0082710D01*
X0126159Y0082800D01*
X0126137Y0082891D01*
X0126120Y0082983D01*
X0126106Y0083075D01*
X0126096Y0083168D01*
X0126090Y0083262D01*
X0126088Y0083355D01*
X0258720Y0091720D02*
X0258720Y0093221D01*
X0258720Y0092471D02*
X0262473Y0092471D01*
X0263224Y0091720D01*
X0263224Y0090970D01*
X0262473Y0090219D01*
X0263224Y0094823D02*
X0258720Y0094823D01*
X0258720Y0097075D01*
X0259470Y0097825D01*
X0260972Y0097825D01*
X0261722Y0097075D01*
X0261722Y0094823D01*
X0260221Y0099427D02*
X0258720Y0100928D01*
X0263224Y0100928D01*
X0263224Y0099427D02*
X0263224Y0102429D01*
D12*
X0256274Y0100981D02*
X0253774Y0103481D01*
X0248774Y0103481D01*
X0246274Y0100981D01*
X0246274Y0095981D01*
X0248774Y0093481D01*
X0246274Y0090981D01*
X0246274Y0085981D01*
X0248774Y0083481D01*
X0253774Y0083481D01*
X0256274Y0085981D01*
X0256274Y0090981D01*
X0253774Y0093481D01*
X0248774Y0093481D01*
X0253774Y0093481D02*
X0256274Y0095981D01*
X0256274Y0100981D01*
X0240455Y0090843D02*
X0238093Y0090843D01*
X0238093Y0086118D02*
X0240455Y0086118D01*
X0246274Y0080981D02*
X0248774Y0083481D01*
X0246274Y0080981D02*
X0246274Y0075981D01*
X0248774Y0073481D01*
X0246274Y0070981D01*
X0246274Y0065981D01*
X0248774Y0063481D01*
X0246274Y0060981D01*
X0246274Y0055981D01*
X0248774Y0053481D01*
X0246274Y0050981D01*
X0246274Y0045981D01*
X0248774Y0043481D01*
X0253774Y0043481D01*
X0256274Y0045981D01*
X0256274Y0050981D01*
X0253774Y0053481D01*
X0248774Y0053481D01*
X0253774Y0053481D02*
X0256274Y0055981D01*
X0256274Y0060981D01*
X0253774Y0063481D01*
X0248774Y0063481D01*
X0253774Y0063481D02*
X0256274Y0065981D01*
X0256274Y0070981D01*
X0253774Y0073481D01*
X0248774Y0073481D01*
X0253774Y0073481D02*
X0256274Y0075981D01*
X0256274Y0080981D01*
X0253774Y0083481D01*
X0240455Y0070843D02*
X0238093Y0070843D01*
X0238093Y0066118D02*
X0240455Y0066118D01*
X0240455Y0060843D02*
X0238093Y0060843D01*
X0238093Y0056118D02*
X0240455Y0056118D01*
X0240455Y0053843D02*
X0238093Y0053843D01*
X0238093Y0049118D02*
X0240455Y0049118D01*
X0168836Y0026962D02*
X0168836Y0024600D01*
X0164111Y0024600D02*
X0164111Y0026962D01*
X0137836Y0026662D02*
X0137836Y0024300D01*
X0133111Y0024300D02*
X0133111Y0026662D01*
X0102636Y0030300D02*
X0102636Y0032662D01*
X0097911Y0032662D02*
X0097911Y0030300D01*
X0092636Y0030300D02*
X0092636Y0032662D01*
X0087911Y0032662D02*
X0087911Y0030300D01*
X0022274Y0033981D02*
X0022274Y0038981D01*
X0019774Y0041481D01*
X0022274Y0043981D01*
X0022274Y0048981D01*
X0019774Y0051481D01*
X0014774Y0051481D01*
X0012274Y0048981D01*
X0012274Y0043981D01*
X0014774Y0041481D01*
X0019774Y0041481D01*
X0014774Y0041481D02*
X0012274Y0038981D01*
X0012274Y0033981D01*
X0014774Y0031481D01*
X0019774Y0031481D01*
X0022274Y0033981D01*
X0141893Y0087818D02*
X0144255Y0087818D01*
X0144255Y0092543D02*
X0141893Y0092543D01*
D13*
X0149374Y0093381D02*
X0137374Y0105381D01*
X0137374Y0135381D01*
X0137436Y0135537D01*
X0137503Y0135692D01*
X0137572Y0135845D01*
X0137646Y0135997D01*
X0137723Y0136146D01*
X0137804Y0136294D01*
X0137888Y0136440D01*
X0137976Y0136583D01*
X0138067Y0136725D01*
X0138161Y0136864D01*
X0138259Y0137001D01*
X0138360Y0137135D01*
X0138465Y0137267D01*
X0138572Y0137397D01*
X0138683Y0137523D01*
X0138797Y0137647D01*
X0138913Y0137769D01*
X0139033Y0137887D01*
X0139155Y0138003D01*
X0139280Y0138115D01*
X0139408Y0138225D01*
X0139539Y0138331D01*
X0139672Y0138434D01*
X0139807Y0138534D01*
X0139945Y0138631D01*
X0140085Y0138724D01*
X0140227Y0138814D01*
X0140372Y0138900D01*
X0140518Y0138983D01*
X0140667Y0139062D01*
X0140817Y0139138D01*
X0140969Y0139210D01*
X0141123Y0139278D01*
X0141278Y0139343D01*
X0141435Y0139404D01*
X0141593Y0139461D01*
X0141753Y0139514D01*
X0141914Y0139563D01*
X0142076Y0139609D01*
X0142239Y0139650D01*
X0142403Y0139688D01*
X0142568Y0139721D01*
X0142734Y0139751D01*
X0142900Y0139777D01*
X0143067Y0139798D01*
X0143234Y0139816D01*
X0143402Y0139829D01*
X0143570Y0139838D01*
X0143738Y0139844D01*
X0143907Y0139845D01*
X0144075Y0139842D01*
X0144243Y0139835D01*
X0144411Y0139824D01*
X0144579Y0139809D01*
X0144746Y0139790D01*
X0144912Y0139767D01*
X0145079Y0139740D01*
X0145244Y0139709D01*
X0145409Y0139674D01*
X0145572Y0139635D01*
X0145735Y0139592D01*
X0145897Y0139545D01*
X0146057Y0139494D01*
X0146216Y0139439D01*
X0146374Y0139381D01*
X0146741Y0139023D01*
X0147116Y0138674D01*
X0147500Y0138334D01*
X0147892Y0138003D01*
X0148292Y0137682D01*
X0148699Y0137371D01*
X0149114Y0137070D01*
X0149535Y0136779D01*
X0149964Y0136498D01*
X0150400Y0136227D01*
X0150842Y0135967D01*
X0151290Y0135718D01*
X0151743Y0135480D01*
X0152203Y0135253D01*
X0152668Y0135037D01*
X0153138Y0134832D01*
X0153613Y0134639D01*
X0154092Y0134457D01*
X0154576Y0134287D01*
X0155063Y0134129D01*
X0155554Y0133982D01*
X0156049Y0133847D01*
X0156547Y0133725D01*
X0157047Y0133614D01*
X0157550Y0133515D01*
X0158056Y0133429D01*
X0158563Y0133355D01*
X0159072Y0133293D01*
X0159582Y0133244D01*
X0160093Y0133207D01*
X0160605Y0133182D01*
X0161118Y0133170D01*
X0161630Y0133170D01*
X0162143Y0133182D01*
X0162655Y0133207D01*
X0163166Y0133244D01*
X0163676Y0133293D01*
X0164185Y0133355D01*
X0164692Y0133429D01*
X0165198Y0133515D01*
X0165701Y0133614D01*
X0166201Y0133725D01*
X0166699Y0133847D01*
X0167194Y0133982D01*
X0167685Y0134129D01*
X0168172Y0134287D01*
X0168656Y0134457D01*
X0169135Y0134639D01*
X0169610Y0134832D01*
X0170080Y0135037D01*
X0170545Y0135253D01*
X0171005Y0135480D01*
X0171458Y0135718D01*
X0171906Y0135967D01*
X0172348Y0136227D01*
X0172784Y0136498D01*
X0173213Y0136779D01*
X0173634Y0137070D01*
X0174049Y0137371D01*
X0174456Y0137682D01*
X0174856Y0138003D01*
X0175248Y0138334D01*
X0175632Y0138674D01*
X0176007Y0139023D01*
X0176374Y0139381D01*
X0185374Y0135381D02*
X0185374Y0105381D01*
X0173374Y0093381D01*
X0149374Y0093381D01*
X0117628Y0076386D02*
X0117628Y0064575D01*
X0117234Y0068512D02*
X0117147Y0068514D01*
X0117060Y0068520D01*
X0116973Y0068529D01*
X0116887Y0068543D01*
X0116802Y0068560D01*
X0116717Y0068581D01*
X0116634Y0068606D01*
X0116551Y0068634D01*
X0116470Y0068666D01*
X0116391Y0068702D01*
X0116313Y0068741D01*
X0116237Y0068783D01*
X0116163Y0068829D01*
X0116091Y0068878D01*
X0116021Y0068930D01*
X0115954Y0068985D01*
X0115889Y0069043D01*
X0115826Y0069104D01*
X0115767Y0069168D01*
X0115710Y0069234D01*
X0115657Y0069303D01*
X0115606Y0069374D01*
X0115559Y0069447D01*
X0115514Y0069522D01*
X0115474Y0069599D01*
X0115436Y0069677D01*
X0115403Y0069758D01*
X0115372Y0069839D01*
X0115346Y0069922D01*
X0115323Y0070007D01*
X0115304Y0070092D01*
X0115289Y0070177D01*
X0115277Y0070264D01*
X0115269Y0070350D01*
X0115265Y0070437D01*
X0115265Y0070525D01*
X0115269Y0070612D01*
X0115277Y0070698D01*
X0115289Y0070785D01*
X0115304Y0070870D01*
X0115323Y0070955D01*
X0115346Y0071040D01*
X0115372Y0071123D01*
X0115403Y0071204D01*
X0115436Y0071285D01*
X0115474Y0071363D01*
X0115514Y0071440D01*
X0115559Y0071515D01*
X0115606Y0071588D01*
X0115657Y0071659D01*
X0115710Y0071728D01*
X0115767Y0071794D01*
X0115826Y0071858D01*
X0115889Y0071919D01*
X0115954Y0071977D01*
X0116021Y0072032D01*
X0116091Y0072084D01*
X0116163Y0072133D01*
X0116237Y0072179D01*
X0116313Y0072221D01*
X0116391Y0072260D01*
X0116470Y0072296D01*
X0116551Y0072328D01*
X0116634Y0072356D01*
X0116717Y0072381D01*
X0116802Y0072402D01*
X0116887Y0072419D01*
X0116973Y0072433D01*
X0117060Y0072442D01*
X0117147Y0072448D01*
X0117234Y0072450D01*
X0107785Y0076386D02*
X0096762Y0076386D01*
X0086919Y0076386D02*
X0086919Y0064575D01*
X0096762Y0064575D02*
X0107785Y0064575D01*
X0117715Y0037024D02*
X0117715Y0035449D01*
X0122833Y0035449D01*
X0122833Y0029937D01*
X0117715Y0029937D02*
X0117715Y0035449D01*
X0122833Y0035449D02*
X0122833Y0037024D01*
X0122774Y0025481D02*
X0117774Y0025481D01*
X0115274Y0022981D01*
X0112774Y0025481D01*
X0107774Y0025481D01*
X0105274Y0022981D01*
X0102774Y0025481D01*
X0097774Y0025481D01*
X0095274Y0022981D01*
X0092774Y0025481D01*
X0087774Y0025481D01*
X0085274Y0022981D01*
X0085274Y0017981D01*
X0087774Y0015481D01*
X0092774Y0015481D01*
X0095274Y0017981D01*
X0097774Y0015481D01*
X0102774Y0015481D01*
X0105274Y0017981D01*
X0107774Y0015481D01*
X0112774Y0015481D01*
X0115274Y0017981D01*
X0117774Y0015481D01*
X0122774Y0015481D01*
X0125274Y0017981D01*
X0125274Y0022981D01*
X0122774Y0025481D01*
X0176274Y0022418D02*
X0176274Y0034544D01*
X0181392Y0038481D02*
X0191274Y0038481D01*
X0196274Y0034544D02*
X0196274Y0022418D01*
X0191156Y0018481D02*
X0181392Y0018481D01*
X0181274Y0028481D02*
X0181276Y0028622D01*
X0181282Y0028763D01*
X0181292Y0028903D01*
X0181306Y0029043D01*
X0181324Y0029183D01*
X0181345Y0029322D01*
X0181371Y0029461D01*
X0181400Y0029599D01*
X0181434Y0029735D01*
X0181471Y0029871D01*
X0181512Y0030006D01*
X0181557Y0030140D01*
X0181606Y0030272D01*
X0181658Y0030403D01*
X0181714Y0030532D01*
X0181774Y0030659D01*
X0181837Y0030785D01*
X0181903Y0030909D01*
X0181974Y0031032D01*
X0182047Y0031152D01*
X0182124Y0031270D01*
X0182204Y0031386D01*
X0182288Y0031499D01*
X0182374Y0031610D01*
X0182464Y0031719D01*
X0182557Y0031825D01*
X0182652Y0031928D01*
X0182751Y0032029D01*
X0182852Y0032127D01*
X0182956Y0032222D01*
X0183063Y0032314D01*
X0183172Y0032403D01*
X0183284Y0032488D01*
X0183398Y0032571D01*
X0183514Y0032651D01*
X0183633Y0032727D01*
X0183754Y0032799D01*
X0183876Y0032869D01*
X0184001Y0032934D01*
X0184127Y0032997D01*
X0184255Y0033055D01*
X0184385Y0033110D01*
X0184516Y0033162D01*
X0184649Y0033209D01*
X0184783Y0033253D01*
X0184918Y0033294D01*
X0185054Y0033330D01*
X0185191Y0033362D01*
X0185329Y0033391D01*
X0185467Y0033416D01*
X0185607Y0033436D01*
X0185747Y0033453D01*
X0185887Y0033466D01*
X0186028Y0033475D01*
X0186168Y0033480D01*
X0186309Y0033481D01*
X0186450Y0033478D01*
X0186591Y0033471D01*
X0186731Y0033460D01*
X0186871Y0033445D01*
X0187011Y0033426D01*
X0187150Y0033404D01*
X0187288Y0033377D01*
X0187426Y0033347D01*
X0187562Y0033312D01*
X0187698Y0033274D01*
X0187832Y0033232D01*
X0187966Y0033186D01*
X0188098Y0033137D01*
X0188228Y0033083D01*
X0188357Y0033026D01*
X0188484Y0032966D01*
X0188610Y0032902D01*
X0188733Y0032834D01*
X0188855Y0032763D01*
X0188975Y0032689D01*
X0189092Y0032611D01*
X0189207Y0032530D01*
X0189320Y0032446D01*
X0189431Y0032359D01*
X0189539Y0032268D01*
X0189644Y0032175D01*
X0189747Y0032078D01*
X0189847Y0031979D01*
X0189944Y0031877D01*
X0190038Y0031772D01*
X0190129Y0031665D01*
X0190217Y0031555D01*
X0190302Y0031443D01*
X0190384Y0031328D01*
X0190463Y0031211D01*
X0190538Y0031092D01*
X0190610Y0030971D01*
X0190678Y0030848D01*
X0190743Y0030723D01*
X0190805Y0030596D01*
X0190862Y0030467D01*
X0190917Y0030337D01*
X0190967Y0030206D01*
X0191014Y0030073D01*
X0191057Y0029939D01*
X0191096Y0029803D01*
X0191131Y0029667D01*
X0191163Y0029530D01*
X0191190Y0029392D01*
X0191214Y0029253D01*
X0191234Y0029113D01*
X0191250Y0028973D01*
X0191262Y0028833D01*
X0191270Y0028692D01*
X0191274Y0028551D01*
X0191274Y0028411D01*
X0191270Y0028270D01*
X0191262Y0028129D01*
X0191250Y0027989D01*
X0191234Y0027849D01*
X0191214Y0027709D01*
X0191190Y0027570D01*
X0191163Y0027432D01*
X0191131Y0027295D01*
X0191096Y0027159D01*
X0191057Y0027023D01*
X0191014Y0026889D01*
X0190967Y0026756D01*
X0190917Y0026625D01*
X0190862Y0026495D01*
X0190805Y0026366D01*
X0190743Y0026239D01*
X0190678Y0026114D01*
X0190610Y0025991D01*
X0190538Y0025870D01*
X0190463Y0025751D01*
X0190384Y0025634D01*
X0190302Y0025519D01*
X0190217Y0025407D01*
X0190129Y0025297D01*
X0190038Y0025190D01*
X0189944Y0025085D01*
X0189847Y0024983D01*
X0189747Y0024884D01*
X0189644Y0024787D01*
X0189539Y0024694D01*
X0189431Y0024603D01*
X0189320Y0024516D01*
X0189207Y0024432D01*
X0189092Y0024351D01*
X0188975Y0024273D01*
X0188855Y0024199D01*
X0188733Y0024128D01*
X0188610Y0024060D01*
X0188484Y0023996D01*
X0188357Y0023936D01*
X0188228Y0023879D01*
X0188098Y0023825D01*
X0187966Y0023776D01*
X0187832Y0023730D01*
X0187698Y0023688D01*
X0187562Y0023650D01*
X0187426Y0023615D01*
X0187288Y0023585D01*
X0187150Y0023558D01*
X0187011Y0023536D01*
X0186871Y0023517D01*
X0186731Y0023502D01*
X0186591Y0023491D01*
X0186450Y0023484D01*
X0186309Y0023481D01*
X0186168Y0023482D01*
X0186028Y0023487D01*
X0185887Y0023496D01*
X0185747Y0023509D01*
X0185607Y0023526D01*
X0185467Y0023546D01*
X0185329Y0023571D01*
X0185191Y0023600D01*
X0185054Y0023632D01*
X0184918Y0023668D01*
X0184783Y0023709D01*
X0184649Y0023753D01*
X0184516Y0023800D01*
X0184385Y0023852D01*
X0184255Y0023907D01*
X0184127Y0023965D01*
X0184001Y0024028D01*
X0183876Y0024093D01*
X0183754Y0024163D01*
X0183633Y0024235D01*
X0183514Y0024311D01*
X0183398Y0024391D01*
X0183284Y0024474D01*
X0183172Y0024559D01*
X0183063Y0024648D01*
X0182956Y0024740D01*
X0182852Y0024835D01*
X0182751Y0024933D01*
X0182652Y0025034D01*
X0182557Y0025137D01*
X0182464Y0025243D01*
X0182374Y0025352D01*
X0182288Y0025463D01*
X0182204Y0025576D01*
X0182124Y0025692D01*
X0182047Y0025810D01*
X0181974Y0025930D01*
X0181903Y0026053D01*
X0181837Y0026177D01*
X0181774Y0026303D01*
X0181714Y0026430D01*
X0181658Y0026559D01*
X0181606Y0026690D01*
X0181557Y0026822D01*
X0181512Y0026956D01*
X0181471Y0027091D01*
X0181434Y0027227D01*
X0181400Y0027363D01*
X0181371Y0027501D01*
X0181345Y0027640D01*
X0181324Y0027779D01*
X0181306Y0027919D01*
X0181292Y0028059D01*
X0181282Y0028199D01*
X0181276Y0028340D01*
X0181274Y0028481D01*
X0208722Y0019341D02*
X0209882Y0018581D01*
X0209943Y0018481D02*
X0208722Y0017560D01*
X0209943Y0016670D02*
X0209943Y0018481D01*
X0209943Y0020292D01*
X0055274Y0071790D02*
X0055274Y0075171D01*
X0051330Y0070690D02*
X0049217Y0070690D01*
X0045274Y0071790D02*
X0045274Y0075171D01*
X0017392Y0075386D02*
X0017392Y0069481D01*
X0007156Y0080111D02*
X0007156Y0058851D01*
X0011093Y0056292D02*
X0013455Y0056292D01*
X0027337Y0058630D02*
X0027337Y0052331D01*
X0027336Y0052331D02*
X0027351Y0052270D01*
X0027369Y0052209D01*
X0027391Y0052150D01*
X0027416Y0052092D01*
X0027446Y0052037D01*
X0027478Y0051983D01*
X0027514Y0051931D01*
X0027553Y0051881D01*
X0027595Y0051834D01*
X0027640Y0051790D01*
X0027688Y0051749D01*
X0027738Y0051711D01*
X0027791Y0051676D01*
X0027845Y0051644D01*
X0027902Y0051616D01*
X0027960Y0051591D01*
X0028019Y0051570D01*
X0028080Y0051553D01*
X0028142Y0051540D01*
X0028204Y0051531D01*
X0028267Y0051525D01*
X0028330Y0051524D01*
X0028393Y0051527D01*
X0028456Y0051533D01*
X0028518Y0051543D01*
X0034029Y0051543D02*
X0034089Y0051533D01*
X0034149Y0051527D01*
X0034210Y0051524D01*
X0034270Y0051525D01*
X0034331Y0051529D01*
X0034391Y0051538D01*
X0034450Y0051549D01*
X0034509Y0051565D01*
X0034567Y0051584D01*
X0034623Y0051606D01*
X0034678Y0051632D01*
X0034731Y0051661D01*
X0034783Y0051693D01*
X0034832Y0051728D01*
X0034880Y0051766D01*
X0034924Y0051807D01*
X0034967Y0051850D01*
X0035006Y0051896D01*
X0035043Y0051944D01*
X0035077Y0051995D01*
X0035107Y0052047D01*
X0035135Y0052101D01*
X0035159Y0052157D01*
X0035180Y0052214D01*
X0035197Y0052272D01*
X0035211Y0052331D01*
X0035211Y0058630D01*
X0035197Y0058689D01*
X0035180Y0058747D01*
X0035159Y0058804D01*
X0035135Y0058860D01*
X0035107Y0058914D01*
X0035077Y0058966D01*
X0035043Y0059017D01*
X0035006Y0059065D01*
X0034967Y0059111D01*
X0034924Y0059154D01*
X0034880Y0059195D01*
X0034832Y0059233D01*
X0034783Y0059268D01*
X0034731Y0059300D01*
X0034678Y0059329D01*
X0034623Y0059355D01*
X0034567Y0059377D01*
X0034509Y0059396D01*
X0034450Y0059412D01*
X0034391Y0059423D01*
X0034331Y0059432D01*
X0034270Y0059436D01*
X0034210Y0059437D01*
X0034149Y0059434D01*
X0034089Y0059428D01*
X0034029Y0059418D01*
X0028518Y0059418D02*
X0028456Y0059428D01*
X0028393Y0059434D01*
X0028330Y0059437D01*
X0028267Y0059436D01*
X0028204Y0059430D01*
X0028142Y0059421D01*
X0028080Y0059408D01*
X0028019Y0059391D01*
X0027960Y0059370D01*
X0027902Y0059345D01*
X0027845Y0059317D01*
X0027791Y0059285D01*
X0027738Y0059250D01*
X0027688Y0059212D01*
X0027640Y0059171D01*
X0027595Y0059127D01*
X0027553Y0059080D01*
X0027514Y0059030D01*
X0027478Y0058978D01*
X0027446Y0058924D01*
X0027416Y0058869D01*
X0027391Y0058811D01*
X0027369Y0058752D01*
X0027351Y0058691D01*
X0027336Y0058630D01*
X0013455Y0082670D02*
X0011093Y0082670D01*
X0009715Y0091937D02*
X0009715Y0093512D01*
X0014833Y0093512D01*
X0014833Y0099024D01*
X0009715Y0099024D02*
X0009715Y0093512D01*
X0014833Y0093512D02*
X0014833Y0091937D01*
X0176374Y0139381D02*
X0176532Y0139439D01*
X0176691Y0139494D01*
X0176851Y0139545D01*
X0177013Y0139592D01*
X0177176Y0139635D01*
X0177339Y0139674D01*
X0177504Y0139709D01*
X0177669Y0139740D01*
X0177836Y0139767D01*
X0178002Y0139790D01*
X0178169Y0139809D01*
X0178337Y0139824D01*
X0178505Y0139835D01*
X0178673Y0139842D01*
X0178841Y0139845D01*
X0179010Y0139844D01*
X0179178Y0139838D01*
X0179346Y0139829D01*
X0179514Y0139816D01*
X0179681Y0139798D01*
X0179848Y0139777D01*
X0180014Y0139751D01*
X0180180Y0139721D01*
X0180345Y0139688D01*
X0180509Y0139650D01*
X0180672Y0139609D01*
X0180834Y0139563D01*
X0180995Y0139514D01*
X0181155Y0139461D01*
X0181313Y0139404D01*
X0181470Y0139343D01*
X0181625Y0139278D01*
X0181779Y0139210D01*
X0181931Y0139138D01*
X0182081Y0139062D01*
X0182230Y0138983D01*
X0182376Y0138900D01*
X0182521Y0138814D01*
X0182663Y0138724D01*
X0182803Y0138631D01*
X0182941Y0138534D01*
X0183076Y0138434D01*
X0183209Y0138331D01*
X0183340Y0138225D01*
X0183468Y0138115D01*
X0183593Y0138003D01*
X0183715Y0137887D01*
X0183835Y0137769D01*
X0183951Y0137647D01*
X0184065Y0137523D01*
X0184176Y0137397D01*
X0184283Y0137267D01*
X0184388Y0137135D01*
X0184489Y0137001D01*
X0184587Y0136864D01*
X0184681Y0136725D01*
X0184772Y0136583D01*
X0184860Y0136440D01*
X0184944Y0136294D01*
X0185025Y0136146D01*
X0185102Y0135997D01*
X0185176Y0135845D01*
X0185245Y0135692D01*
X0185312Y0135537D01*
X0185374Y0135381D01*
D14*
X0142598Y0094982D02*
X0142097Y0094732D01*
X0141597Y0094231D01*
X0142348Y0094231D01*
X0142598Y0093981D01*
X0142598Y0093731D01*
X0142348Y0093481D01*
X0141847Y0093481D01*
X0141597Y0093731D01*
X0141597Y0094231D01*
X0141124Y0093731D02*
X0140874Y0093481D01*
X0140374Y0093481D01*
X0140124Y0093731D01*
X0140124Y0094732D01*
X0140374Y0094982D01*
X0140874Y0094982D01*
X0141124Y0094732D01*
X0112851Y0082432D02*
X0112851Y0080931D01*
X0113351Y0080931D02*
X0112350Y0080931D01*
X0111878Y0081181D02*
X0111628Y0080931D01*
X0111127Y0080931D01*
X0110877Y0081181D01*
X0110877Y0082182D01*
X0111127Y0082432D01*
X0111628Y0082432D01*
X0111878Y0082182D01*
X0112350Y0081932D02*
X0112851Y0082432D01*
X0070324Y0078808D02*
X0068822Y0078808D01*
X0069573Y0078057D01*
X0069573Y0079058D01*
X0069073Y0077585D02*
X0068822Y0077335D01*
X0068822Y0076834D01*
X0069073Y0076584D01*
X0070073Y0076584D01*
X0070324Y0076834D01*
X0070324Y0077335D01*
X0070073Y0077585D01*
X0053351Y0064682D02*
X0053101Y0064932D01*
X0052601Y0064932D01*
X0052350Y0064682D01*
X0051878Y0064932D02*
X0051878Y0063681D01*
X0051628Y0063431D01*
X0051127Y0063431D01*
X0050877Y0063681D01*
X0050877Y0064932D01*
X0052350Y0063431D02*
X0053351Y0064432D01*
X0053351Y0064682D01*
X0053351Y0063431D02*
X0052350Y0063431D01*
X0037824Y0058633D02*
X0037824Y0057632D01*
X0036823Y0058633D01*
X0036573Y0058633D01*
X0036322Y0058383D01*
X0036322Y0057882D01*
X0036573Y0057632D01*
X0036322Y0057160D02*
X0036322Y0056659D01*
X0036322Y0056910D02*
X0037573Y0056910D01*
X0037824Y0056659D01*
X0037824Y0056409D01*
X0037573Y0056159D01*
X0037573Y0055687D02*
X0037824Y0055436D01*
X0037824Y0054936D01*
X0037573Y0054686D01*
X0037073Y0054936D02*
X0037073Y0055436D01*
X0037323Y0055687D01*
X0037573Y0055687D01*
X0037073Y0054936D02*
X0036823Y0054686D01*
X0036573Y0054686D01*
X0036322Y0054936D01*
X0036322Y0055436D01*
X0036573Y0055687D01*
X0041073Y0075584D02*
X0042073Y0075584D01*
X0042324Y0075834D01*
X0042324Y0076335D01*
X0042073Y0076585D01*
X0042073Y0077057D02*
X0042324Y0077308D01*
X0042324Y0077808D01*
X0042073Y0078058D01*
X0041823Y0078058D01*
X0041573Y0077808D01*
X0041573Y0077558D01*
X0041573Y0077808D02*
X0041323Y0078058D01*
X0041073Y0078058D01*
X0040822Y0077808D01*
X0040822Y0077308D01*
X0041073Y0077057D01*
X0041073Y0076585D02*
X0040822Y0076335D01*
X0040822Y0075834D01*
X0041073Y0075584D01*
X0008224Y0092031D02*
X0008224Y0092781D01*
X0007973Y0093032D01*
X0006973Y0093032D01*
X0006722Y0092781D01*
X0006722Y0092031D01*
X0008224Y0092031D01*
X0008224Y0093504D02*
X0007223Y0094505D01*
X0006973Y0094505D01*
X0006722Y0094255D01*
X0006722Y0093754D01*
X0006973Y0093504D01*
X0008224Y0093504D02*
X0008224Y0094505D01*
X0110877Y0052182D02*
X0110877Y0051181D01*
X0111127Y0050931D01*
X0111628Y0050931D01*
X0111878Y0051181D01*
X0112350Y0050931D02*
X0113351Y0051932D01*
X0113351Y0052182D01*
X0113101Y0052432D01*
X0112601Y0052432D01*
X0112350Y0052182D01*
X0111878Y0052182D02*
X0111628Y0052432D01*
X0111127Y0052432D01*
X0110877Y0052182D01*
X0112350Y0050931D02*
X0113351Y0050931D01*
X0124573Y0036558D02*
X0124823Y0036558D01*
X0125073Y0036308D01*
X0125323Y0036558D01*
X0125573Y0036558D01*
X0125824Y0036308D01*
X0125824Y0035808D01*
X0125573Y0035557D01*
X0125573Y0035085D02*
X0124573Y0035085D01*
X0124322Y0034835D01*
X0124322Y0034084D01*
X0125824Y0034084D01*
X0125824Y0034835D01*
X0125573Y0035085D01*
X0125073Y0036058D02*
X0125073Y0036308D01*
X0124573Y0036558D02*
X0124322Y0036308D01*
X0124322Y0035808D01*
X0124573Y0035557D01*
X0138772Y0028058D02*
X0138772Y0027057D01*
X0139523Y0027057D01*
X0139273Y0027558D01*
X0139273Y0027808D01*
X0139523Y0028058D01*
X0140023Y0028058D01*
X0140274Y0027808D01*
X0140274Y0027308D01*
X0140023Y0027057D01*
X0140023Y0026585D02*
X0140274Y0026335D01*
X0140274Y0025834D01*
X0140023Y0025584D01*
X0139023Y0025584D01*
X0138772Y0025834D01*
X0138772Y0026335D01*
X0139023Y0026585D01*
X0169772Y0026635D02*
X0169772Y0026134D01*
X0170023Y0025884D01*
X0171023Y0025884D01*
X0171274Y0026134D01*
X0171274Y0026635D01*
X0171023Y0026885D01*
X0171023Y0027357D02*
X0170023Y0028358D01*
X0169772Y0028358D01*
X0169772Y0027357D01*
X0170023Y0026885D02*
X0169772Y0026635D01*
X0171023Y0027357D02*
X0171274Y0027357D01*
X0193322Y0029334D02*
X0193573Y0029084D01*
X0193823Y0029084D01*
X0194073Y0029334D01*
X0194073Y0029835D01*
X0194323Y0030085D01*
X0194573Y0030085D01*
X0194824Y0029835D01*
X0194824Y0029334D01*
X0194573Y0029084D01*
X0193322Y0029334D02*
X0193322Y0029835D01*
X0193573Y0030085D01*
X0193573Y0030557D02*
X0193322Y0030808D01*
X0193322Y0031308D01*
X0193573Y0031558D01*
X0193823Y0031558D01*
X0194824Y0030557D01*
X0194824Y0031558D01*
X0205824Y0022782D02*
X0206574Y0022782D01*
X0206824Y0022532D01*
X0206824Y0021531D01*
X0206574Y0021281D01*
X0205824Y0021281D01*
X0205824Y0022782D01*
X0207297Y0022282D02*
X0207797Y0022782D01*
X0207797Y0021281D01*
X0207297Y0021281D02*
X0208298Y0021281D01*
X0224877Y0015432D02*
X0224877Y0013931D01*
X0224877Y0014431D02*
X0225628Y0014431D01*
X0225878Y0014681D01*
X0225878Y0015182D01*
X0225628Y0015432D01*
X0224877Y0015432D01*
X0225378Y0014431D02*
X0225878Y0013931D01*
X0226350Y0013931D02*
X0227351Y0013931D01*
X0226851Y0013931D02*
X0226851Y0015432D01*
X0226350Y0014932D01*
X0236324Y0054781D02*
X0236324Y0056282D01*
X0237074Y0056282D01*
X0237324Y0056032D01*
X0237324Y0055531D01*
X0237074Y0055281D01*
X0236324Y0055281D01*
X0236824Y0055281D02*
X0237324Y0054781D01*
X0237797Y0054781D02*
X0237797Y0055031D01*
X0238798Y0056032D01*
X0238798Y0056282D01*
X0237797Y0056282D01*
X0238047Y0061781D02*
X0238548Y0061781D01*
X0238798Y0062031D01*
X0238798Y0062281D01*
X0238548Y0062531D01*
X0237797Y0062531D01*
X0237797Y0062031D01*
X0238047Y0061781D01*
X0237324Y0061781D02*
X0236824Y0062281D01*
X0237074Y0062281D02*
X0236324Y0062281D01*
X0236324Y0061781D02*
X0236324Y0063282D01*
X0237074Y0063282D01*
X0237324Y0063032D01*
X0237324Y0062531D01*
X0237074Y0062281D01*
X0237797Y0062531D02*
X0238297Y0063032D01*
X0238798Y0063282D01*
X0238548Y0071781D02*
X0238047Y0071781D01*
X0237797Y0072031D01*
X0237797Y0072531D02*
X0238297Y0072782D01*
X0238548Y0072782D01*
X0238798Y0072531D01*
X0238798Y0072031D01*
X0238548Y0071781D01*
X0237797Y0072531D02*
X0237797Y0073282D01*
X0238798Y0073282D01*
X0237324Y0073032D02*
X0237074Y0073282D01*
X0236324Y0073282D01*
X0236324Y0071781D01*
X0236324Y0072281D02*
X0237074Y0072281D01*
X0237324Y0072531D01*
X0237324Y0073032D01*
X0236824Y0072281D02*
X0237324Y0071781D01*
X0237324Y0091781D02*
X0236824Y0092281D01*
X0237074Y0092281D02*
X0236324Y0092281D01*
X0236324Y0091781D02*
X0236324Y0093282D01*
X0237074Y0093282D01*
X0237324Y0093032D01*
X0237324Y0092531D01*
X0237074Y0092281D01*
X0237797Y0092531D02*
X0238798Y0092531D01*
X0238548Y0091781D02*
X0238548Y0093282D01*
X0237797Y0092531D01*
X0105074Y0033808D02*
X0105074Y0033308D01*
X0104823Y0033057D01*
X0105074Y0032585D02*
X0104573Y0032085D01*
X0104573Y0032335D02*
X0104573Y0031584D01*
X0105074Y0031584D02*
X0103572Y0031584D01*
X0103572Y0032335D01*
X0103823Y0032585D01*
X0104323Y0032585D01*
X0104573Y0032335D01*
X0103823Y0033057D02*
X0103572Y0033308D01*
X0103572Y0033808D01*
X0103823Y0034058D01*
X0104073Y0034058D01*
X0104323Y0033808D01*
X0104573Y0034058D01*
X0104823Y0034058D01*
X0105074Y0033808D01*
X0104323Y0033808D02*
X0104323Y0033558D01*
X0095074Y0034058D02*
X0095074Y0033057D01*
X0094073Y0034058D01*
X0093823Y0034058D01*
X0093572Y0033808D01*
X0093572Y0033308D01*
X0093823Y0033057D01*
X0093823Y0032585D02*
X0094323Y0032585D01*
X0094573Y0032335D01*
X0094573Y0031584D01*
X0094573Y0032085D02*
X0095074Y0032585D01*
X0095074Y0031584D02*
X0093572Y0031584D01*
X0093572Y0032335D01*
X0093823Y0032585D01*
D15*
X0224274Y0018481D03*
D16*
X0110274Y0055361D02*
X0110274Y0055601D01*
X0110274Y0085361D02*
X0110274Y0085601D01*
D17*
X0056574Y0077481D03*
D18*
X0009674Y0068258D02*
X0009674Y0066791D01*
X0009674Y0067525D02*
X0007472Y0067525D01*
X0008206Y0066791D01*
X0007839Y0066049D02*
X0007472Y0065682D01*
X0007472Y0064948D01*
X0007839Y0064581D01*
X0008206Y0064581D01*
X0008573Y0064948D01*
X0008573Y0065682D01*
X0008940Y0066049D01*
X0009307Y0066049D01*
X0009674Y0065682D01*
X0009674Y0064948D01*
X0009307Y0064581D01*
M02*
